<svg width="166" height="61" viewBox="0 0 166 61" fill="none" xmlns="http://www.w3.org/2000/svg">
    <path
        d="M21.8625 50.9375C19.0292 50.9375 16.3 50.4583 13.675 49.5C11.0917 48.5 8.77917 47.0625 6.7375 45.1875C4.69584 43.3125 3.07084 41.0208 1.8625 38.3125C0.695836 35.6042 0.112503 32.5208 0.112503 29.0625C0.112503 25.6042 0.695836 22.5208 1.8625 19.8125C3.07084 17.1042 4.69584 14.8125 6.7375 12.9375C8.77917 11.0625 11.0917 9.64583 13.675 8.6875C16.3 7.6875 19.0292 7.1875 21.8625 7.1875C24.6958 7.1875 27.4042 7.6875 29.9875 8.6875C32.6125 9.64583 34.9458 11.0625 36.9875 12.9375C39.0292 14.8125 40.6333 17.1042 41.8 19.8125C43.0083 22.5208 43.6125 25.6042 43.6125 29.0625C43.6125 32.5208 43.0083 35.6042 41.8 38.3125C40.6333 41.0208 39.0292 43.3125 36.9875 45.1875C34.9458 47.0625 32.6125 48.5 29.9875 49.5C27.4042 50.4583 24.6958 50.9375 21.8625 50.9375ZM44.8 60.6875C42.3 60.6875 39.6333 60.3333 36.8 59.625C33.9667 58.9583 31.2375 57.8958 28.6125 56.4375C26.0292 54.9792 23.7792 53.1458 21.8625 50.9375L31.2375 48.5625C32.4458 49.3125 33.7792 49.8542 35.2375 50.1875C36.6958 50.5208 38.2375 50.7292 39.8625 50.8125C41.4875 50.8958 43.1333 50.9375 44.8 50.9375V60.6875ZM21.8625 40C23.7375 40 25.4042 39.5208 26.8625 38.5625C28.3625 37.6042 29.5292 36.3125 30.3625 34.6875C31.1958 33.0208 31.6125 31.1458 31.6125 29.0625C31.6125 26.9792 31.1958 25.125 30.3625 23.5C29.5292 21.8333 28.3625 20.5208 26.8625 19.5625C25.4042 18.6042 23.7375 18.125 21.8625 18.125C19.9875 18.125 18.3208 18.6042 16.8625 19.5625C15.4042 20.5208 14.2375 21.8333 13.3625 23.5C12.5292 25.125 12.1125 26.9792 12.1125 29.0625C12.1125 31.1458 12.5292 33.0208 13.3625 34.6875C14.2375 36.3125 15.4042 37.6042 16.8625 38.5625C18.3208 39.5208 19.9875 40 21.8625 40ZM65.4625 50.9375C62.5042 50.9375 59.8792 50.3958 57.5875 49.3125C55.2958 48.2292 53.4833 46.6667 52.15 44.625C50.8583 42.5833 50.2125 40.125 50.2125 37.25V18.125H61.025V34.375C61.025 36.5417 61.3583 38.125 62.025 39.125C62.7333 40.125 63.8792 40.625 65.4625 40.625C67.0458 40.625 68.1708 40.125 68.8375 39.125C69.5458 38.125 69.9 36.5417 69.9 34.375V18.125H80.7125V37.25C80.7125 40.125 80.0458 42.5833 78.7125 44.625C77.4208 46.6667 75.6292 48.2292 73.3375 49.3125C71.0458 50.3958 68.4208 50.9375 65.4625 50.9375ZM97.3125 13.25C95.4792 13.25 93.8958 12.625 92.5625 11.375C91.2292 10.0833 90.5625 8.54167 90.5625 6.75C90.5625 4.91667 91.2292 3.375 92.5625 2.125C93.8958 0.875 95.4792 0.25 97.3125 0.25C98.4792 0.25 99.5625 0.541667 100.562 1.125C101.604 1.70833 102.438 2.5 103.062 3.5C103.688 4.45833 104 5.54167 104 6.75C104 7.91667 103.688 9 103.062 10C102.438 11 101.604 11.7917 100.562 12.375C99.5625 12.9583 98.4792 13.25 97.3125 13.25ZM92.875 50V18.125H103.625V50H92.875ZM87.6875 26.875V18.125H103.625V26.875H87.6875ZM121.475 43.875V31.5625L133.163 18.125H145.538L121.475 43.875ZM112.225 50V5H122.975V50H112.225ZM132.538 50L124.788 36.625L131.413 29.3125L146.1 50H132.538ZM158.95 13.25C157.117 13.25 155.533 12.625 154.2 11.375C152.867 10.0833 152.2 8.54167 152.2 6.75C152.2 4.91667 152.867 3.375 154.2 2.125C155.533 0.875 157.117 0.25 158.95 0.25C160.117 0.25 161.2 0.541667 162.2 1.125C163.242 1.70833 164.075 2.5 164.7 3.5C165.325 4.45833 165.637 5.54167 165.637 6.75C165.637 7.91667 165.325 9 164.7 10C164.075 11 163.242 11.7917 162.2 12.375C161.2 12.9583 160.117 13.25 158.95 13.25ZM154.512 50V18.125H165.262V50H154.512ZM149.325 26.875V18.125H165.262V26.875H149.325Z"
        fill="#D9D9D9" />
</svg>