<svg width="70" height="70" viewBox="0 0 70 70" fill="none" xmlns="http://www.w3.org/2000/svg">
    <circle cx="35" cy="35" r="35" fill="#FEFEFD" />
    <circle cx="35" cy="35" r="34.5" stroke="black" stroke-opacity="0.22" />
    <g clip-path="url(#clip0_950_1693)">
        <path
            d="M49.3512 19.2255L48.5706 19.2426L48.3979 20.004L46.5186 28.2898L45.2055 28.3186L47.4855 18.2662L55.0779 18.0996L55.0998 19.0993L49.3512 19.2255ZM39.8364 53.301L36.5645 33.5094L52.2547 33.1651L49.8541 53.0812L49.8456 53.1517L49.847 53.2167L49.8471 53.221L49.8471 53.2194L49.8471 53.217L49.847 53.2232C49.8469 53.2282 49.8468 53.2354 49.8465 53.2448C49.8463 53.2545 49.8458 53.2665 49.8451 53.2805C49.8424 53.336 49.8359 53.4219 49.8206 53.5278C49.7894 53.7443 49.7253 54.0181 49.6009 54.2812C49.4784 54.5403 49.3068 54.7701 49.0643 54.9396C48.828 55.1047 48.4664 55.2536 47.8915 55.2662L41.893 55.3978C41.3181 55.4104 40.9503 55.2776 40.707 55.123C40.4573 54.9643 40.2758 54.7423 40.142 54.4888C40.0062 54.2314 39.9302 53.9606 39.8895 53.7457C39.8696 53.6406 39.8593 53.5551 39.8542 53.4997C39.8516 53.4722 39.8503 53.4527 39.8498 53.4425L39.8494 53.4364L39.8495 53.4388L39.8495 53.4403L39.8494 53.436L39.848 53.3711L39.8364 53.301ZM21.1299 20.845C21.1051 19.7113 21.0857 18.8091 21.1142 18.0721C21.143 17.3258 21.2193 16.8448 21.3388 16.5255C21.4425 16.2485 21.5666 16.1209 21.7382 16.0301C21.9544 15.9157 22.333 15.8174 23.0198 15.8023C23.7138 15.7871 24.0999 15.864 24.3233 15.9659C24.4967 16.045 24.62 16.1583 24.7318 16.4179C24.8631 16.7225 24.9604 17.1938 25.0222 17.9438C25.0831 18.6837 25.1036 19.5985 25.129 20.7572C25.1401 21.2662 25.2756 21.8814 25.4587 22.5175C25.6469 23.1715 25.9075 23.9209 26.2108 24.7235C26.8154 26.3239 27.6129 28.1973 28.3996 30.0454L28.4054 30.059C29.1987 31.9227 29.9807 33.7602 30.5692 35.318C30.8633 36.0964 31.1032 36.7895 31.2703 37.3702C31.4425 37.9687 31.5171 38.3804 31.5224 38.6213L31.8515 53.6177C31.8662 54.2891 31.657 54.7769 31.3512 55.0964C31.0455 55.4159 30.5673 55.6463 29.8959 55.6611L17.8987 55.9243C16.8307 55.9478 15.88 55.0934 15.8554 53.9687L15.5263 38.9723C15.521 38.7314 15.5775 38.3168 15.7233 37.7113C15.8648 37.1239 16.074 36.4209 16.3336 35.6303C16.8533 34.0483 17.5539 32.1782 18.2648 30.2815L18.27 30.2676C18.9748 28.3868 19.6893 26.4802 20.2232 24.8549C20.4909 24.0398 20.7185 23.2797 20.8778 22.6181C21.0328 21.9745 21.1411 21.3539 21.1299 20.845Z"
            fill="white" fill-opacity="0.53" stroke="#9D696A" stroke-width="2" />
    </g>
    <defs>
        <clipPath id="clip0_950_1693">
            <rect width="42" height="42" fill="white" transform="translate(14 15) rotate(-1.25707)" />
        </clipPath>
    </defs>
</svg>