<svg width="70" height="70" viewBox="0 0 70 70" fill="none" xmlns="http://www.w3.org/2000/svg">
    <circle cx="35" cy="35" r="35" fill="white" />
    <circle cx="35" cy="35" r="34.5" stroke="black" stroke-opacity="0.22" />
    <path
        d="M51.5022 28.4328H45.7905V22.4875C45.7905 22.1478 45.4931 21.8724 45.1263 21.8724H43.6652V21.0599C44.8836 20.7832 45.7905 19.7637 45.7905 18.5513C45.7905 18.1886 45.671 17.5158 44.6382 15.8669C44.0999 15.0076 43.5699 14.2954 43.5475 14.2654C43.4236 14.0992 43.2193 14 43.0011 14C42.7829 14 42.5786 14.0992 42.4546 14.2654C42.4323 14.2954 41.9022 15.0076 41.3639 15.8669C40.3311 17.5158 40.2117 18.1886 40.2117 18.5513C40.2117 19.7637 41.1185 20.7831 42.3369 21.0599V21.8724H40.8758C40.509 21.8724 40.2117 22.1478 40.2117 22.4875V28.4328H37.2894V22.4875C37.2894 22.1478 36.9921 21.8724 36.6253 21.8724H35.1641V21.0599C36.3825 20.7832 37.2894 19.7637 37.2894 18.5513C37.2894 18.1886 37.17 17.5158 36.1371 15.8669C35.5989 15.0076 35.0688 14.2954 35.0465 14.2654C34.9225 14.0992 34.7182 14 34.5 14C34.2818 14 34.0775 14.0992 33.9535 14.2654C33.9312 14.2954 33.4011 15.0076 32.8629 15.8669C31.83 17.5158 31.7106 18.1886 31.7106 18.5513C31.7106 19.7637 32.6175 20.7831 33.8359 21.0599V21.8724H32.3747C32.0079 21.8724 31.7106 22.1478 31.7106 22.4875V28.4328H28.7883V22.4875C28.7883 22.1478 28.491 21.8724 28.1242 21.8724H26.6631V21.0599C27.8815 20.7832 28.7883 19.7637 28.7883 18.5513C28.7883 18.1886 28.6689 17.5158 27.636 15.8669C27.0978 15.0076 26.5677 14.2954 26.5454 14.2654C26.4214 14.0992 26.2171 14 25.9989 14C25.7807 14 25.5764 14.0992 25.4525 14.2654C25.4301 14.2954 24.9001 15.0076 24.3618 15.8669C23.329 17.5158 23.2095 18.1886 23.2095 18.5513C23.2095 19.7637 24.1164 20.7831 25.3348 21.0599V21.8724H23.8736C23.5069 21.8724 23.2095 22.1478 23.2095 22.4875V28.4328H17.4978C15.5692 28.4328 14 29.8859 14 31.672V49.385C14 49.7246 14.2974 50 14.6641 50H54.3359C54.7026 50 55 49.7246 55 49.385V31.672C55 29.8859 53.4309 28.4328 51.5022 28.4328ZM41.54 18.5513C41.54 18.1032 42.2264 16.8729 43.0012 15.7329C43.7759 16.8725 44.4622 18.1025 44.4622 18.5513C44.4622 19.0758 44.1376 19.5306 43.6652 19.7549V18.5513C43.6652 18.2116 43.3679 17.9362 43.0011 17.9362C42.6343 17.9362 42.3369 18.2116 42.3369 18.5513V19.755C41.8646 19.5306 41.54 19.0758 41.54 18.5513ZM33.0389 18.5513C33.0389 18.1032 33.7253 16.8729 34.5001 15.7329C35.2748 16.8725 35.9611 18.1025 35.9611 18.5513C35.9611 19.0758 35.6365 19.5306 35.1641 19.7549V18.5513C35.1641 18.2116 34.8668 17.9362 34.5 17.9362C34.1332 17.9362 33.8359 18.2116 33.8359 18.5513V19.7549C33.3635 19.5306 33.0389 19.0758 33.0389 18.5513ZM24.5378 18.5513C24.5378 18.1032 25.2243 16.8729 25.999 15.7329C26.7738 16.8725 27.46 18.1025 27.46 18.5513C27.46 19.0758 27.1354 19.5306 26.6631 19.7549V18.5513C26.6631 18.2116 26.3657 17.9362 25.9989 17.9362C25.6321 17.9362 25.3348 18.2116 25.3348 18.5513V19.7549C24.8624 19.5306 24.5378 19.0758 24.5378 18.5513ZM17.4978 33.3423C18.0099 33.9002 18.7724 34.2551 19.6231 34.2551C20.4738 34.2551 21.2364 33.9002 21.7484 33.3423C22.2604 33.9002 23.0229 34.2551 23.8736 34.2551C24.7244 34.2551 25.4869 33.9002 25.9989 33.3423C26.5109 33.9002 27.2735 34.2551 28.1242 34.2551C28.9749 34.2551 29.7374 33.9002 30.2495 33.3423C30.7615 33.9002 31.524 34.2551 32.3747 34.2551C33.2255 34.2551 33.988 33.9002 34.5 33.3423C35.012 33.9002 35.7745 34.2551 36.6253 34.2551C37.476 34.2551 38.2385 33.9002 38.7505 33.3423C39.2626 33.9002 40.0251 34.2551 40.8758 34.2551C41.7265 34.2551 42.4891 33.9002 43.0011 33.3423C43.5131 33.9002 44.2756 34.2551 45.1263 34.2551C45.9771 34.2551 46.7396 33.9002 47.2516 33.3423C47.7636 33.9002 48.5262 34.2551 49.3769 34.2551C50.2276 34.2551 50.9901 33.9002 51.5022 33.3423C52.0142 33.9002 52.7767 34.2551 53.6274 34.2551C53.6424 34.2551 53.657 34.254 53.6717 34.2531V35.6513C53.6569 35.6503 53.6422 35.6492 53.6274 35.6492C53.453 35.6492 53.2812 35.7148 53.1581 35.8296C53.0341 35.9436 52.9633 36.1019 52.9633 36.2642C52.9633 36.4266 53.0341 36.5849 53.1581 36.6989C53.2812 36.8137 53.453 36.8793 53.6274 36.8793C53.6422 36.8793 53.657 36.8781 53.6717 36.8772V40.2436C53.657 40.2427 53.6424 40.2415 53.6274 40.2415C52.8941 40.2415 52.4897 40.4906 52.1944 40.6725C51.9586 40.8176 51.8288 40.8976 51.4968 40.8976C51.1649 40.8976 51.035 40.8176 50.7994 40.6725C50.5041 40.4906 50.0997 40.2415 49.3664 40.2415C48.6337 40.2415 48.2297 40.4908 47.9346 40.6727C47.6996 40.8177 47.5701 40.8976 47.2392 40.8976C46.9086 40.8976 46.7791 40.8177 46.5442 40.6727C46.2492 40.4908 45.8452 40.2415 45.1126 40.2415C44.38 40.2415 43.9761 40.4908 43.6812 40.6728C43.4462 40.8178 43.3169 40.8976 42.9863 40.8976C42.6565 40.8976 42.5273 40.8178 42.2929 40.673C41.9982 40.4909 41.5946 40.2415 40.8624 40.2415C40.1298 40.2415 39.7259 40.4908 39.431 40.6728C39.196 40.8178 39.0667 40.8976 38.736 40.8976C38.4054 40.8976 38.276 40.8177 38.0411 40.6728C37.7461 40.4908 37.3422 40.2415 36.6096 40.2415C35.8772 40.2415 35.4734 40.4908 35.1785 40.6728C34.9437 40.8177 34.8145 40.8976 34.4841 40.8976C34.1542 40.8976 34.025 40.8178 33.7905 40.6729C33.4957 40.4908 33.092 40.2415 32.3598 40.2415C31.6273 40.2415 31.2235 40.4908 30.9286 40.6728C30.6938 40.8177 30.5644 40.8976 30.2341 40.8976C29.9044 40.8976 29.7753 40.8178 29.5409 40.673C29.2462 40.4909 28.8425 40.2415 28.1104 40.2415C27.378 40.2415 26.9743 40.4908 26.6795 40.6729C26.4449 40.8178 26.3157 40.8976 25.9855 40.8976C25.6563 40.8976 25.5273 40.8178 25.2932 40.673C24.9985 40.4909 24.5952 40.2415 23.8632 40.2415C23.1309 40.2415 22.7272 40.4908 22.4324 40.6729C22.1978 40.8178 22.0685 40.8976 21.7385 40.8976C21.4092 40.8976 21.2802 40.8178 21.0461 40.673C20.7515 40.4909 20.3481 40.2415 19.6161 40.2415C18.8845 40.2415 18.4812 40.4909 18.1868 40.6731C17.9528 40.8178 17.8241 40.8975 17.4953 40.8975C17.1659 40.8975 17.0368 40.8177 16.8026 40.673C16.5081 40.4909 16.1045 40.2415 15.3726 40.2415C15.3576 40.2415 15.343 40.2426 15.3283 40.2435V36.8771C15.3431 36.878 15.3578 36.8792 15.3726 36.8792C15.547 36.8792 15.7188 36.8136 15.8419 36.6988C15.9659 36.5848 16.0367 36.4265 16.0367 36.2642C16.0367 36.1026 15.9659 35.9435 15.8419 35.8295C15.7188 35.7147 15.547 35.6491 15.3726 35.6491C15.3578 35.6491 15.3431 35.6503 15.3283 35.6512V34.253C15.343 34.2539 15.3576 34.255 15.3726 34.255C16.2233 34.2551 16.9858 33.9002 17.4978 33.3423ZM53.6717 42.8677C53.657 42.8668 53.6424 42.8657 53.6274 42.8657C52.8941 42.8657 52.4897 43.1147 52.1944 43.2966C51.9586 43.4418 51.8288 43.5217 51.4968 43.5217C51.1649 43.5217 51.035 43.4418 50.7994 43.2966C50.5041 43.1147 50.0997 42.8657 49.3664 42.8657C48.6337 42.8657 48.2297 43.1149 47.9346 43.2969C47.6996 43.4418 47.5701 43.5217 47.2392 43.5217C46.9086 43.5217 46.7791 43.4418 46.5442 43.2969C46.2492 43.1149 45.8452 42.8657 45.1126 42.8657C44.38 42.8657 43.9761 43.115 43.6812 43.2969C43.4462 43.4419 43.3169 43.5217 42.9863 43.5217C42.6565 43.5217 42.5273 43.4419 42.2929 43.2971C41.9982 43.1151 41.5946 42.8657 40.8624 42.8657C40.1298 42.8657 39.7259 43.115 39.431 43.2969C39.196 43.4419 39.0667 43.5217 38.736 43.5217C38.4054 43.5217 38.276 43.4419 38.0411 43.2969C37.7461 43.115 37.3422 42.8657 36.6096 42.8657C35.8772 42.8657 35.4734 43.115 35.1785 43.2969C34.9437 43.4419 34.8145 43.5217 34.4841 43.5217C34.1542 43.5217 34.025 43.4419 33.7905 43.297C33.4957 43.115 33.092 42.8657 32.3598 42.8657C31.6273 42.8657 31.2235 43.115 30.9286 43.2969C30.6938 43.4419 30.5644 43.5217 30.2341 43.5217C29.9044 43.5217 29.7753 43.4419 29.5409 43.2971C29.2462 43.1151 28.8425 42.8657 28.1104 42.8657C27.378 42.8657 26.9743 43.115 26.6795 43.297C26.4449 43.4419 26.3157 43.5217 25.9855 43.5217C25.6563 43.5217 25.5273 43.4419 25.2932 43.2972C24.9985 43.1151 24.5952 42.8657 23.8632 42.8657C23.1309 42.8657 22.7272 43.115 22.4324 43.297C22.1978 43.4419 22.0685 43.5217 21.7385 43.5217C21.4092 43.5217 21.2802 43.4419 21.0461 43.2972C20.7515 43.1151 20.3481 42.8656 19.6161 42.8656C18.8845 42.8656 18.4812 43.1151 18.1868 43.2973C17.9528 43.4419 17.8241 43.5216 17.4953 43.5216C17.1659 43.5216 17.0368 43.4418 16.8026 43.2971C16.5081 43.1151 16.1045 42.8656 15.3726 42.8656C15.3576 42.8656 15.343 42.8668 15.3283 42.8677V41.4695C15.343 41.4704 15.3576 41.4715 15.3726 41.4715C15.702 41.4715 15.831 41.5513 16.0652 41.6961C16.3598 41.8782 16.7633 42.1276 17.4953 42.1276C18.2269 42.1276 18.6302 41.8781 18.9246 41.6959C19.1586 41.5512 19.2873 41.4715 19.6161 41.4715C19.9454 41.4715 20.0744 41.5513 20.3085 41.6961C20.6031 41.8782 21.0065 42.1276 21.7384 42.1276C22.4707 42.1276 22.8744 41.8783 23.1692 41.6962C23.4038 41.5513 23.5331 41.4715 23.8631 41.4715C24.1924 41.4715 24.3214 41.5513 24.5556 41.6961C24.8502 41.8782 25.2536 42.1276 25.9855 42.1276C26.7178 42.1276 27.1216 41.8783 27.4164 41.6962C27.6511 41.5513 27.7802 41.4715 28.1104 41.4715C28.4401 41.4715 28.5693 41.5513 28.8037 41.6961C29.0984 41.8783 29.502 42.1276 30.2341 42.1276C30.9665 42.1276 31.3704 41.8783 31.6652 41.6963C31.9 41.5514 32.0294 41.4715 32.3598 41.4715C32.6897 41.4715 32.8189 41.5513 33.0534 41.6962C33.3482 41.8783 33.7519 42.1276 34.4841 42.1276C35.2166 42.1276 35.6205 41.8783 35.9153 41.6963C36.15 41.5514 36.2793 41.4715 36.6096 41.4715C36.9402 41.4715 37.0695 41.5514 37.3045 41.6963C37.5994 41.8783 38.0033 42.1276 38.7359 42.1276C39.4685 42.1276 39.8724 41.8783 40.1674 41.6963C40.4023 41.5513 40.5317 41.4715 40.8623 41.4715C41.1921 41.4715 41.3213 41.5513 41.5557 41.6961C41.8504 41.8782 42.254 42.1276 42.9862 42.1276C43.7188 42.1276 44.1227 41.8783 44.4177 41.6963C44.6526 41.5513 44.782 41.4715 45.1125 41.4715C45.4432 41.4715 45.5727 41.5514 45.8076 41.6964C46.1026 41.8784 46.5065 42.1276 47.2391 42.1276C47.9718 42.1276 48.3759 41.8784 48.6709 41.6964C48.9059 41.5514 49.0354 41.4715 49.3663 41.4715C49.6982 41.4715 49.8281 41.5515 50.0637 41.6966C50.359 41.8785 50.7635 42.1276 51.4968 42.1276C52.2301 42.1276 52.6346 41.8785 52.9299 41.6966C53.1656 41.5515 53.2954 41.4715 53.6273 41.4715C53.6423 41.4715 53.6569 41.4704 53.6716 41.4695V42.8677H53.6717ZM15.3283 44.0936C15.343 44.0945 15.3576 44.0957 15.3726 44.0957C15.702 44.0957 15.831 44.1755 16.0652 44.3202C16.3598 44.5023 16.7633 44.7517 17.4953 44.7517C18.2269 44.7517 18.6302 44.5022 18.9246 44.32C19.1586 44.1754 19.2873 44.0957 19.6161 44.0957C19.9454 44.0957 20.0744 44.1755 20.3085 44.3202C20.6031 44.5023 21.0065 44.7517 21.7384 44.7517C22.4707 44.7517 22.8744 44.5024 23.1692 44.3204C23.4038 44.1755 23.5331 44.0957 23.8631 44.0957C24.1924 44.0957 24.3214 44.1755 24.5556 44.3202C24.8502 44.5023 25.2536 44.7517 25.9855 44.7517C26.7178 44.7517 27.1216 44.5024 27.4164 44.3204C27.6511 44.1755 27.7802 44.0957 28.1104 44.0957C28.4401 44.0957 28.5693 44.1755 28.8037 44.3203C29.0984 44.5024 29.502 44.7517 30.2341 44.7517C30.9665 44.7517 31.3704 44.5024 31.6652 44.3204C31.9 44.1755 32.0294 44.0957 32.3598 44.0957C32.6897 44.0957 32.8189 44.1755 33.0534 44.3204C33.3482 44.5024 33.7519 44.7517 34.4841 44.7517C35.2166 44.7517 35.6205 44.5024 35.9153 44.3204C36.15 44.1755 36.2793 44.0957 36.6096 44.0957C36.9402 44.0957 37.0695 44.1755 37.3045 44.3204C37.5994 44.5024 38.0033 44.7517 38.7359 44.7517C39.4685 44.7517 39.8724 44.5024 40.1674 44.3204C40.4023 44.1755 40.5317 44.0957 40.8623 44.0957C41.1921 44.0957 41.3213 44.1755 41.5557 44.3203C41.8504 44.5023 42.254 44.7517 42.9862 44.7517C43.7188 44.7517 44.1227 44.5024 44.4177 44.3204C44.6526 44.1755 44.782 44.0957 45.1125 44.0957C45.4432 44.0957 45.5727 44.1755 45.8076 44.3205C46.1026 44.5025 46.5065 44.7517 47.2391 44.7517C47.9718 44.7517 48.3759 44.5025 48.6709 44.3205C48.9059 44.1755 49.0354 44.0957 49.3663 44.0957C49.6982 44.0957 49.8281 44.1756 50.0637 44.3208C50.359 44.5027 50.7635 44.7517 51.4968 44.7517C52.2301 44.7517 52.6346 44.5027 52.9299 44.3208C53.1656 44.1756 53.2954 44.0957 53.6273 44.0957C53.6423 44.0957 53.6569 44.0945 53.6716 44.0936V46.1458H15.3283V44.0936ZM41.54 23.1025H44.4622V28.4328H41.54V23.1025ZM33.0389 23.1025H35.9611V28.4328H33.0389V23.1025ZM24.5378 23.1025H27.46V28.4328H24.5378V23.1025ZM17.4978 29.6629H51.5022C52.6984 29.6629 53.6717 30.5642 53.6717 31.672V33.0271C53.657 33.0262 53.6424 33.0251 53.6274 33.0251C52.8218 33.0251 52.1663 32.4181 52.1663 31.672C52.1663 31.3323 51.8689 31.0569 51.5022 31.0569C51.1354 31.0569 50.838 31.3323 50.838 31.672C50.838 32.4181 50.1825 33.0251 49.3769 33.0251C48.5712 33.0251 47.9158 32.4181 47.9158 31.672C47.9158 31.3323 47.6184 31.0569 47.2516 31.0569C46.8848 31.0569 46.5875 31.3323 46.5875 31.672C46.5875 32.4181 45.932 33.0251 45.1263 33.0251C44.3207 33.0251 43.6652 32.4181 43.6652 31.672C43.6652 31.3323 43.3679 31.0569 43.0011 31.0569C42.6343 31.0569 42.3369 31.3323 42.3369 31.672C42.3369 32.4181 41.6815 33.0251 40.8758 33.0251C40.0702 33.0251 39.4147 32.4181 39.4147 31.672C39.4147 31.3323 39.1173 31.0569 38.7505 31.0569C38.3838 31.0569 38.0864 31.3323 38.0864 31.672C38.0864 32.4181 37.4309 33.0251 36.6253 33.0251C35.8196 33.0251 35.1641 32.4181 35.1641 31.672C35.1641 31.3323 34.8668 31.0569 34.5 31.0569C34.1332 31.0569 33.8359 31.3323 33.8359 31.672C33.8359 32.4181 33.1804 33.0251 32.3747 33.0251C31.5691 33.0251 30.9136 32.4181 30.9136 31.672C30.9136 31.3323 30.6162 31.0569 30.2495 31.0569C29.8827 31.0569 29.5853 31.3323 29.5853 31.672C29.5853 32.4181 28.9298 33.0251 28.1242 33.0251C27.3185 33.0251 26.6631 32.4181 26.6631 31.672C26.6631 31.3323 26.3657 31.0569 25.9989 31.0569C25.6321 31.0569 25.3348 31.3323 25.3348 31.672C25.3348 32.4181 24.6793 33.0251 23.8736 33.0251C23.068 33.0251 22.4125 32.4181 22.4125 31.672C22.4125 31.3323 22.1152 31.0569 21.7484 31.0569C21.3816 31.0569 21.0842 31.3323 21.0842 31.672C21.0842 32.4181 20.4288 33.0251 19.6231 33.0251C18.8175 33.0251 18.162 32.4181 18.162 31.672C18.162 31.3323 17.8646 31.0569 17.4978 31.0569C17.1311 31.0569 16.8337 31.3323 16.8337 31.672C16.8337 32.4181 16.1782 33.0251 15.3726 33.0251C15.3576 33.0251 15.343 33.0262 15.3283 33.0271V31.672C15.3283 30.5642 16.3016 29.6629 17.4978 29.6629ZM15.3283 48.7699V47.3759H53.6717V48.7699H15.3283Z"
        fill="#9D696A" />
</svg>