<svg width="160" height="24" viewBox="0 0 160 24" fill="none" xmlns="http://www.w3.org/2000/svg">
    <path
        d="M21.3613 8.18242C21.2188 8.29043 18.7031 9.67537 18.7031 12.7549C18.7031 16.3168 21.9042 17.577 22 17.6082C21.9853 17.685 21.4915 19.3339 20.3122 21.0141C19.2608 22.4926 18.1626 23.9688 16.4921 23.9688C14.8215 23.9688 14.3916 23.0207 12.4631 23.0207C10.5837 23.0207 9.91549 24 8.38742 24C6.85935 24 5.79315 22.6319 4.56725 20.9517C3.14728 18.9787 2 15.9136 2 13.0045C2 8.33843 5.10527 5.86379 8.16141 5.86379C9.78528 5.86379 11.1389 6.90549 12.1585 6.90549C13.1289 6.90549 14.6422 5.80138 16.4896 5.80138C17.1898 5.80138 19.7054 5.86379 21.3613 8.18242ZM15.6126 3.82598C16.3766 2.94029 16.9171 1.71137 16.9171 0.482448C16.9171 0.312031 16.9023 0.139214 16.8704 0C15.6273 0.0456046 14.1484 0.808881 13.2566 1.81938C12.5564 2.59706 11.903 3.82598 11.903 5.07171C11.903 5.25893 11.9349 5.44614 11.9496 5.50615C12.0283 5.52055 12.156 5.53735 12.2837 5.53735C13.3991 5.53735 14.8019 4.80768 15.6126 3.82598Z"
        fill="black" />
    <path
        d="M37.11 17.182C36.4473 17.182 35.85 17.0793 35.318 16.874C34.7953 16.6687 34.352 16.3653 33.988 15.964C33.624 15.5627 33.344 15.0727 33.148 14.494C32.9613 13.906 32.868 13.2387 32.868 12.492C32.868 11.736 32.966 11.0593 33.162 10.462C33.358 9.85533 33.638 9.33733 34.002 8.908C34.366 8.47867 34.8047 8.152 35.318 7.928C35.8313 7.69467 36.4053 7.578 37.04 7.578C37.5253 7.578 37.9733 7.648 38.384 7.788C38.7947 7.91867 39.1493 8.11467 39.448 8.376C39.756 8.628 39.994 8.936 40.162 9.3C40.33 9.664 40.4187 10.07 40.428 10.518L39.21 10.826C39.2193 10.35 39.1213 9.958 38.916 9.65C38.7107 9.33267 38.44 9.09467 38.104 8.936C37.768 8.77733 37.404 8.698 37.012 8.698C36.648 8.698 36.2933 8.77267 35.948 8.922C35.612 9.062 35.3133 9.286 35.052 9.594C34.7907 9.89267 34.5807 10.28 34.422 10.756C34.2727 11.2227 34.198 11.7873 34.198 12.45C34.198 13.2993 34.3193 13.9853 34.562 14.508C34.814 15.0307 35.164 15.418 35.612 15.67C36.06 15.9127 36.578 16.034 37.166 16.034C37.7353 16.034 38.1927 15.9313 38.538 15.726C38.8833 15.5113 39.14 15.2173 39.308 14.844C39.476 14.4613 39.574 14.0227 39.602 13.528L40.75 13.738C40.7407 14.2047 40.666 14.648 40.526 15.068C40.386 15.488 40.1713 15.8567 39.882 16.174C39.5927 16.4913 39.2193 16.7387 38.762 16.916C38.3047 17.0933 37.754 17.182 37.11 17.182ZM45.2982 17.182C44.6076 17.182 43.9962 17.0327 43.4642 16.734C42.9416 16.426 42.5309 15.9873 42.2322 15.418C41.9429 14.8487 41.7982 14.158 41.7982 13.346C41.7982 12.506 41.9522 11.8107 42.2602 11.26C42.5776 10.7 42.9976 10.28 43.5202 10C44.0429 9.72 44.6262 9.58 45.2702 9.58C45.9422 9.58 46.5396 9.72933 47.0622 10.028C47.5942 10.3173 48.0142 10.7467 48.3222 11.316C48.6302 11.876 48.7842 12.5713 48.7842 13.402C48.7842 14.2327 48.6302 14.928 48.3222 15.488C48.0236 16.048 47.6082 16.4727 47.0762 16.762C46.5536 17.042 45.9609 17.182 45.2982 17.182ZM45.3542 16.132C45.8022 16.132 46.1849 16.0247 46.5022 15.81C46.8289 15.586 47.0762 15.2733 47.2442 14.872C47.4216 14.4707 47.5102 13.9947 47.5102 13.444C47.5102 12.8747 47.4169 12.3847 47.2302 11.974C47.0529 11.554 46.7962 11.232 46.4602 11.008C46.1242 10.7747 45.7182 10.658 45.2422 10.658C44.8129 10.658 44.4349 10.7607 44.1082 10.966C43.7816 11.1713 43.5296 11.4747 43.3522 11.876C43.1749 12.268 43.0862 12.7487 43.0862 13.318C43.0862 14.1953 43.2869 14.886 43.6882 15.39C44.0989 15.8847 44.6542 16.132 45.3542 16.132ZM50.3584 17V12.506V9.762H51.5064L51.3804 12.058H51.6184C51.7491 11.4887 51.9218 11.022 52.1364 10.658C52.3604 10.294 52.6404 10.0233 52.9764 9.846C53.3124 9.66867 53.7044 9.58 54.1524 9.58C54.9551 9.58 55.5618 9.86933 55.9724 10.448C56.3924 11.0173 56.6024 11.8713 56.6024 13.01V17H55.3144V13.122C55.3144 12.3007 55.1838 11.694 54.9224 11.302C54.6704 10.91 54.2971 10.714 53.8024 10.714C53.3544 10.714 52.9718 10.854 52.6544 11.134C52.3464 11.414 52.1038 11.7827 51.9264 12.24C51.7491 12.6973 51.6511 13.192 51.6324 13.724V17H50.3584ZM60.6986 17.14C60.0266 17.14 59.5273 16.958 59.2006 16.594C58.8739 16.23 58.7106 15.6747 58.7106 14.928V10.826H57.6186L57.6326 9.762H58.3186C58.5519 9.762 58.7199 9.72 58.8226 9.636C58.9346 9.552 58.9999 9.412 59.0186 9.216L59.1586 8.124H59.9426V9.762H62.0286V10.84H59.9426V14.9C59.9426 15.2733 60.0266 15.544 60.1946 15.712C60.3719 15.8707 60.6239 15.95 60.9506 15.95C61.1279 15.95 61.3099 15.9267 61.4966 15.88C61.6926 15.8333 61.8839 15.74 62.0706 15.6V16.874C61.7999 16.9767 61.5479 17.0467 61.3146 17.084C61.0906 17.1213 60.8853 17.14 60.6986 17.14ZM63.4139 17V9.762H64.6879V17H63.4139ZM64.0579 8.502C63.7592 8.502 63.5352 8.44133 63.3859 8.32C63.2366 8.19867 63.1619 8.01667 63.1619 7.774C63.1619 7.53133 63.2366 7.34933 63.3859 7.228C63.5352 7.10667 63.7546 7.046 64.0439 7.046C64.3426 7.046 64.5666 7.10667 64.7159 7.228C64.8652 7.34933 64.9399 7.53133 64.9399 7.774C64.9399 8.00733 64.8652 8.18933 64.7159 8.32C64.5666 8.44133 64.3472 8.502 64.0579 8.502ZM66.6599 17V12.506V9.762H67.8079L67.6819 12.058H67.9199C68.0506 11.4887 68.2232 11.022 68.4379 10.658C68.6619 10.294 68.9419 10.0233 69.2779 9.846C69.6139 9.66867 70.0059 9.58 70.4539 9.58C71.2566 9.58 71.8632 9.86933 72.2739 10.448C72.6939 11.0173 72.9039 11.8713 72.9039 13.01V17H71.6159V13.122C71.6159 12.3007 71.4852 11.694 71.2239 11.302C70.9719 10.91 70.5986 10.714 70.1039 10.714C69.6559 10.714 69.2732 10.854 68.9559 11.134C68.6479 11.414 68.4052 11.7827 68.2279 12.24C68.0506 12.6973 67.9526 13.192 67.9339 13.724V17H66.6599ZM77.0838 17.182C76.2811 17.182 75.6744 16.902 75.2638 16.342C74.8531 15.782 74.6478 14.9467 74.6478 13.836V9.762H75.9358V13.724C75.9358 14.508 76.0571 15.0913 76.2998 15.474C76.5424 15.8567 76.9251 16.048 77.4478 16.048C77.7371 16.048 77.9938 15.978 78.2178 15.838C78.4511 15.698 78.6564 15.4973 78.8338 15.236C79.0111 14.9747 79.1558 14.6667 79.2678 14.312C79.3798 13.948 79.4544 13.556 79.4918 13.136V9.762H80.7658V13.976V17H79.6318L79.7438 14.676H79.5338C79.4124 15.2547 79.2398 15.7307 79.0158 16.104C78.8011 16.468 78.5304 16.7387 78.2038 16.916C77.8771 17.0933 77.5038 17.182 77.0838 17.182ZM85.8445 17.182C85.2752 17.182 84.7712 17.098 84.3325 16.93C83.9032 16.7527 83.5392 16.5007 83.2405 16.174C82.9419 15.8473 82.7179 15.46 82.5685 15.012C82.4192 14.564 82.3445 14.06 82.3445 13.5C82.3445 12.9307 82.4192 12.408 82.5685 11.932C82.7179 11.456 82.9372 11.0407 83.2265 10.686C83.5159 10.3313 83.8705 10.0607 84.2905 9.874C84.7105 9.678 85.1912 9.58 85.7325 9.58C86.2085 9.58 86.6425 9.65933 87.0345 9.818C87.4265 9.97667 87.7579 10.224 88.0285 10.56C88.3085 10.8867 88.5185 11.302 88.6585 11.806C88.7985 12.3007 88.8545 12.884 88.8265 13.556L83.1425 13.598V12.73L88.0565 12.688L87.6225 13.276C87.6692 12.688 87.6132 12.2027 87.4545 11.82C87.2959 11.4373 87.0672 11.148 86.7685 10.952C86.4792 10.756 86.1339 10.658 85.7325 10.658C85.3032 10.658 84.9252 10.77 84.5985 10.994C84.2719 11.218 84.0199 11.54 83.8425 11.96C83.6745 12.38 83.5905 12.8887 83.5905 13.486C83.5905 14.3447 83.7819 15.0027 84.1645 15.46C84.5472 15.908 85.1165 16.132 85.8725 16.132C86.1619 16.132 86.4139 16.0993 86.6285 16.034C86.8525 15.9593 87.0392 15.8613 87.1885 15.74C87.3472 15.6093 87.4732 15.46 87.5665 15.292C87.6692 15.124 87.7485 14.942 87.8045 14.746L88.9245 15.012C88.8405 15.348 88.7099 15.6513 88.5325 15.922C88.3645 16.1833 88.1499 16.4073 87.8885 16.594C87.6365 16.7807 87.3425 16.9253 87.0065 17.028C86.6705 17.1307 86.2832 17.182 85.8445 17.182ZM94.8619 17L92.9439 9.762H94.2599L95.6879 15.922H95.9119L97.4379 9.762H99.0899L100.63 15.922H100.84L102.268 9.762H103.57L101.624 17H99.8319L98.3339 10.854H98.1659L96.6679 17H94.8619ZM104.794 17V9.762H106.068V17H104.794ZM105.438 8.502C105.14 8.502 104.916 8.44133 104.766 8.32C104.617 8.19867 104.542 8.01667 104.542 7.774C104.542 7.53133 104.617 7.34933 104.766 7.228C104.916 7.10667 105.135 7.046 105.424 7.046C105.723 7.046 105.947 7.10667 106.096 7.228C106.246 7.34933 106.32 7.53133 106.32 7.774C106.32 8.00733 106.246 8.18933 106.096 8.32C105.947 8.44133 105.728 8.502 105.438 8.502ZM110.294 17.14C109.622 17.14 109.123 16.958 108.796 16.594C108.47 16.23 108.306 15.6747 108.306 14.928V10.826H107.214L107.228 9.762H107.914C108.148 9.762 108.316 9.72 108.418 9.636C108.53 9.552 108.596 9.412 108.614 9.216L108.754 8.124H109.538V9.762H111.624V10.84H109.538V14.9C109.538 15.2733 109.622 15.544 109.79 15.712C109.968 15.8707 110.22 15.95 110.546 15.95C110.724 15.95 110.906 15.9267 111.092 15.88C111.288 15.8333 111.48 15.74 111.666 15.6V16.874C111.396 16.9767 111.144 17.0467 110.91 17.084C110.686 17.1213 110.481 17.14 110.294 17.14ZM112.996 17V12.604V7.2H114.312V9.454C114.312 9.65933 114.302 9.86933 114.284 10.084C114.274 10.2893 114.256 10.4993 114.228 10.714C114.209 10.9287 114.186 11.148 114.158 11.372C114.13 11.5867 114.097 11.806 114.06 12.03H114.298C114.438 11.4793 114.615 11.0267 114.83 10.672C115.044 10.308 115.31 10.0373 115.628 9.86C115.954 9.67333 116.342 9.58 116.79 9.58C117.611 9.58 118.222 9.86933 118.624 10.448C119.034 11.0173 119.24 11.8713 119.24 13.01V17H117.952V13.136C117.952 12.296 117.821 11.6847 117.56 11.302C117.308 10.91 116.925 10.714 116.412 10.714C115.982 10.714 115.618 10.84 115.32 11.092C115.021 11.344 114.783 11.6847 114.606 12.114C114.438 12.5433 114.326 13.0333 114.27 13.584V17H112.996ZM123.71 17L126.958 7.76H128.834L132.082 17H130.696L127.98 8.838H127.812L125.096 17H123.71ZM125.25 14.928V13.948H130.696V14.928H125.25ZM133.33 19.268V13.388V9.762H134.478L134.408 11.624H134.618C134.73 11.2133 134.884 10.8587 135.08 10.56C135.286 10.252 135.547 10.014 135.864 9.846C136.182 9.66867 136.564 9.58 137.012 9.58C137.675 9.58 138.226 9.748 138.664 10.084C139.112 10.4107 139.448 10.8633 139.672 11.442C139.896 12.0113 140.008 12.66 140.008 13.388C140.008 14.116 139.896 14.7647 139.672 15.334C139.448 15.9033 139.117 16.356 138.678 16.692C138.249 17.0187 137.722 17.182 137.096 17.182C136.592 17.182 136.172 17.0793 135.836 16.874C135.51 16.6593 135.248 16.3793 135.052 16.034C134.856 15.6887 134.702 15.3293 134.59 14.956H134.352C134.408 15.208 134.455 15.4693 134.492 15.74C134.53 16.0107 134.558 16.2813 134.576 16.552C134.604 16.8133 134.618 17.0653 134.618 17.308V19.268H133.33ZM136.774 16.076C137.185 16.076 137.53 15.9593 137.81 15.726C138.09 15.4833 138.305 15.1567 138.454 14.746C138.604 14.3353 138.678 13.8733 138.678 13.36C138.678 12.8093 138.599 12.338 138.44 11.946C138.291 11.554 138.076 11.2507 137.796 11.036C137.516 10.812 137.176 10.7 136.774 10.7C136.429 10.7 136.121 10.7793 135.85 10.938C135.589 11.0873 135.365 11.2927 135.178 11.554C134.992 11.806 134.847 12.086 134.744 12.394C134.651 12.6927 134.604 12.9913 134.604 13.29V13.458C134.604 13.6447 134.632 13.8547 134.688 14.088C134.744 14.312 134.828 14.5407 134.94 14.774C135.052 15.0073 135.192 15.222 135.36 15.418C135.538 15.614 135.743 15.7727 135.976 15.894C136.21 16.0153 136.476 16.076 136.774 16.076ZM141.608 19.268V13.388V9.762H142.756L142.686 11.624H142.896C143.008 11.2133 143.162 10.8587 143.358 10.56C143.563 10.252 143.824 10.014 144.142 9.846C144.459 9.66867 144.842 9.58 145.29 9.58C145.952 9.58 146.503 9.748 146.942 10.084C147.39 10.4107 147.726 10.8633 147.95 11.442C148.174 12.0113 148.286 12.66 148.286 13.388C148.286 14.116 148.174 14.7647 147.95 15.334C147.726 15.9033 147.394 16.356 146.956 16.692C146.526 17.0187 145.999 17.182 145.374 17.182C144.87 17.182 144.45 17.0793 144.114 16.874C143.787 16.6593 143.526 16.3793 143.33 16.034C143.134 15.6887 142.98 15.3293 142.868 14.956H142.63C142.686 15.208 142.732 15.4693 142.77 15.74C142.807 16.0107 142.835 16.2813 142.854 16.552C142.882 16.8133 142.896 17.0653 142.896 17.308V19.268H141.608ZM145.052 16.076C145.462 16.076 145.808 15.9593 146.088 15.726C146.368 15.4833 146.582 15.1567 146.732 14.746C146.881 14.3353 146.956 13.8733 146.956 13.36C146.956 12.8093 146.876 12.338 146.718 11.946C146.568 11.554 146.354 11.2507 146.074 11.036C145.794 10.812 145.453 10.7 145.052 10.7C144.706 10.7 144.398 10.7793 144.128 10.938C143.866 11.0873 143.642 11.2927 143.456 11.554C143.269 11.806 143.124 12.086 143.022 12.394C142.928 12.6927 142.882 12.9913 142.882 13.29V13.458C142.882 13.6447 142.91 13.8547 142.966 14.088C143.022 14.312 143.106 14.5407 143.218 14.774C143.33 15.0073 143.47 15.222 143.638 15.418C143.815 15.614 144.02 15.7727 144.254 15.894C144.487 16.0153 144.753 16.076 145.052 16.076ZM149.885 17V7.2H151.159V17H149.885ZM156.226 17.182C155.657 17.182 155.153 17.098 154.714 16.93C154.285 16.7527 153.921 16.5007 153.622 16.174C153.323 15.8473 153.099 15.46 152.95 15.012C152.801 14.564 152.726 14.06 152.726 13.5C152.726 12.9307 152.801 12.408 152.95 11.932C153.099 11.456 153.319 11.0407 153.608 10.686C153.897 10.3313 154.252 10.0607 154.672 9.874C155.092 9.678 155.573 9.58 156.114 9.58C156.59 9.58 157.024 9.65933 157.416 9.818C157.808 9.97667 158.139 10.224 158.41 10.56C158.69 10.8867 158.9 11.302 159.04 11.806C159.18 12.3007 159.236 12.884 159.208 13.556L153.524 13.598V12.73L158.438 12.688L158.004 13.276C158.051 12.688 157.995 12.2027 157.836 11.82C157.677 11.4373 157.449 11.148 157.15 10.952C156.861 10.756 156.515 10.658 156.114 10.658C155.685 10.658 155.307 10.77 154.98 10.994C154.653 11.218 154.401 11.54 154.224 11.96C154.056 12.38 153.972 12.8887 153.972 13.486C153.972 14.3447 154.163 15.0027 154.546 15.46C154.929 15.908 155.498 16.132 156.254 16.132C156.543 16.132 156.795 16.0993 157.01 16.034C157.234 15.9593 157.421 15.8613 157.57 15.74C157.729 15.6093 157.855 15.46 157.948 15.292C158.051 15.124 158.13 14.942 158.186 14.746L159.306 15.012C159.222 15.348 159.091 15.6513 158.914 15.922C158.746 16.1833 158.531 16.4073 158.27 16.594C158.018 16.7807 157.724 16.9253 157.388 17.028C157.052 17.1307 156.665 17.182 156.226 17.182Z"
        fill="black" />
</svg>