<svg width="170" height="24" viewBox="0 0 170 24" fill="none" xmlns="http://www.w3.org/2000/svg">
    <path
        d="M23.06 12.25C23.06 11.47 22.99 10.72 22.86 10H12.5V14.26H18.42C18.16 15.63 17.38 16.79 16.21 17.57V20.34H19.78C21.86 18.42 23.06 15.6 23.06 12.25Z"
        fill="#4285F4" />
    <path
        d="M12.5001 23C15.4701 23 17.9601 22.02 19.7801 20.34L16.2101 17.57C15.2301 18.23 13.9801 18.63 12.5001 18.63C9.64005 18.63 7.21005 16.7 6.34005 14.1H2.68005V16.94C4.49005 20.53 8.20005 23 12.5001 23Z"
        fill="#34A853" />
    <path
        d="M6.34 14.09C6.12 13.43 5.99 12.73 5.99 12C5.99 11.27 6.12 10.57 6.34 9.91001V7.07001H2.68C1.93 8.55001 1.5 10.22 1.5 12C1.5 13.78 1.93 15.45 2.68 16.93L5.53 14.71L6.34 14.09Z"
        fill="#FBBC05" />
    <path
        d="M12.5001 5.38C14.1201 5.38 15.5601 5.94 16.7101 7.02L19.8601 3.87C17.9501 2.09 15.4701 1 12.5001 1C8.20005 1 4.49005 3.47 2.68005 7.07L6.34005 9.91C7.21005 7.31 9.64005 5.38 12.5001 5.38Z"
        fill="#EA4335" />
    <path
        d="M37.61 17.182C36.9473 17.182 36.35 17.0793 35.818 16.874C35.2953 16.6687 34.852 16.3653 34.488 15.964C34.124 15.5627 33.844 15.0727 33.648 14.494C33.4613 13.906 33.368 13.2387 33.368 12.492C33.368 11.736 33.466 11.0593 33.662 10.462C33.858 9.85533 34.138 9.33733 34.502 8.908C34.866 8.47867 35.3047 8.152 35.818 7.928C36.3313 7.69467 36.9053 7.578 37.54 7.578C38.0253 7.578 38.4733 7.648 38.884 7.788C39.2947 7.91867 39.6493 8.11467 39.948 8.376C40.256 8.628 40.494 8.936 40.662 9.3C40.83 9.664 40.9187 10.07 40.928 10.518L39.71 10.826C39.7193 10.35 39.6213 9.958 39.416 9.65C39.2107 9.33267 38.94 9.09467 38.604 8.936C38.268 8.77733 37.904 8.698 37.512 8.698C37.148 8.698 36.7933 8.77267 36.448 8.922C36.112 9.062 35.8133 9.286 35.552 9.594C35.2907 9.89267 35.0807 10.28 34.922 10.756C34.7727 11.2227 34.698 11.7873 34.698 12.45C34.698 13.2993 34.8193 13.9853 35.062 14.508C35.314 15.0307 35.664 15.418 36.112 15.67C36.56 15.9127 37.078 16.034 37.666 16.034C38.2353 16.034 38.6927 15.9313 39.038 15.726C39.3833 15.5113 39.64 15.2173 39.808 14.844C39.976 14.4613 40.074 14.0227 40.102 13.528L41.25 13.738C41.2407 14.2047 41.166 14.648 41.026 15.068C40.886 15.488 40.6713 15.8567 40.382 16.174C40.0927 16.4913 39.7193 16.7387 39.262 16.916C38.8047 17.0933 38.254 17.182 37.61 17.182ZM45.7982 17.182C45.1076 17.182 44.4962 17.0327 43.9642 16.734C43.4416 16.426 43.0309 15.9873 42.7322 15.418C42.4429 14.8487 42.2982 14.158 42.2982 13.346C42.2982 12.506 42.4522 11.8107 42.7602 11.26C43.0776 10.7 43.4976 10.28 44.0202 10C44.5429 9.72 45.1262 9.58 45.7702 9.58C46.4422 9.58 47.0396 9.72933 47.5622 10.028C48.0942 10.3173 48.5142 10.7467 48.8222 11.316C49.1302 11.876 49.2842 12.5713 49.2842 13.402C49.2842 14.2327 49.1302 14.928 48.8222 15.488C48.5236 16.048 48.1082 16.4727 47.5762 16.762C47.0536 17.042 46.4609 17.182 45.7982 17.182ZM45.8542 16.132C46.3022 16.132 46.6849 16.0247 47.0022 15.81C47.3289 15.586 47.5762 15.2733 47.7442 14.872C47.9216 14.4707 48.0102 13.9947 48.0102 13.444C48.0102 12.8747 47.9169 12.3847 47.7302 11.974C47.5529 11.554 47.2962 11.232 46.9602 11.008C46.6242 10.7747 46.2182 10.658 45.7422 10.658C45.3129 10.658 44.9349 10.7607 44.6082 10.966C44.2816 11.1713 44.0296 11.4747 43.8522 11.876C43.6749 12.268 43.5862 12.7487 43.5862 13.318C43.5862 14.1953 43.7869 14.886 44.1882 15.39C44.5989 15.8847 45.1542 16.132 45.8542 16.132ZM50.8584 17V12.506V9.762H52.0064L51.8804 12.058H52.1184C52.2491 11.4887 52.4218 11.022 52.6364 10.658C52.8604 10.294 53.1404 10.0233 53.4764 9.846C53.8124 9.66867 54.2044 9.58 54.6524 9.58C55.4551 9.58 56.0618 9.86933 56.4724 10.448C56.8924 11.0173 57.1024 11.8713 57.1024 13.01V17H55.8144V13.122C55.8144 12.3007 55.6838 11.694 55.4224 11.302C55.1704 10.91 54.7971 10.714 54.3024 10.714C53.8544 10.714 53.4718 10.854 53.1544 11.134C52.8464 11.414 52.6038 11.7827 52.4264 12.24C52.2491 12.6973 52.1511 13.192 52.1324 13.724V17H50.8584ZM61.1986 17.14C60.5266 17.14 60.0273 16.958 59.7006 16.594C59.3739 16.23 59.2106 15.6747 59.2106 14.928V10.826H58.1186L58.1326 9.762H58.8186C59.0519 9.762 59.2199 9.72 59.3226 9.636C59.4346 9.552 59.4999 9.412 59.5186 9.216L59.6586 8.124H60.4426V9.762H62.5286V10.84H60.4426V14.9C60.4426 15.2733 60.5266 15.544 60.6946 15.712C60.8719 15.8707 61.1239 15.95 61.4506 15.95C61.6279 15.95 61.8099 15.9267 61.9966 15.88C62.1926 15.8333 62.3839 15.74 62.5706 15.6V16.874C62.2999 16.9767 62.0479 17.0467 61.8146 17.084C61.5906 17.1213 61.3853 17.14 61.1986 17.14ZM63.9139 17V9.762H65.1879V17H63.9139ZM64.5579 8.502C64.2592 8.502 64.0352 8.44133 63.8859 8.32C63.7366 8.19867 63.6619 8.01667 63.6619 7.774C63.6619 7.53133 63.7366 7.34933 63.8859 7.228C64.0352 7.10667 64.2546 7.046 64.5439 7.046C64.8426 7.046 65.0666 7.10667 65.2159 7.228C65.3652 7.34933 65.4399 7.53133 65.4399 7.774C65.4399 8.00733 65.3652 8.18933 65.2159 8.32C65.0666 8.44133 64.8472 8.502 64.5579 8.502ZM67.1599 17V12.506V9.762H68.3079L68.1819 12.058H68.4199C68.5506 11.4887 68.7232 11.022 68.9379 10.658C69.1619 10.294 69.4419 10.0233 69.7779 9.846C70.1139 9.66867 70.5059 9.58 70.9539 9.58C71.7566 9.58 72.3632 9.86933 72.7739 10.448C73.1939 11.0173 73.4039 11.8713 73.4039 13.01V17H72.1159V13.122C72.1159 12.3007 71.9852 11.694 71.7239 11.302C71.4719 10.91 71.0986 10.714 70.6039 10.714C70.1559 10.714 69.7732 10.854 69.4559 11.134C69.1479 11.414 68.9052 11.7827 68.7279 12.24C68.5506 12.6973 68.4526 13.192 68.4339 13.724V17H67.1599ZM77.5838 17.182C76.7811 17.182 76.1744 16.902 75.7638 16.342C75.3531 15.782 75.1478 14.9467 75.1478 13.836V9.762H76.4358V13.724C76.4358 14.508 76.5571 15.0913 76.7998 15.474C77.0424 15.8567 77.4251 16.048 77.9478 16.048C78.2371 16.048 78.4938 15.978 78.7178 15.838C78.9511 15.698 79.1564 15.4973 79.3338 15.236C79.5111 14.9747 79.6558 14.6667 79.7678 14.312C79.8798 13.948 79.9544 13.556 79.9918 13.136V9.762H81.2658V13.976V17H80.1318L80.2438 14.676H80.0338C79.9124 15.2547 79.7398 15.7307 79.5158 16.104C79.3011 16.468 79.0304 16.7387 78.7038 16.916C78.3771 17.0933 78.0038 17.182 77.5838 17.182ZM86.3445 17.182C85.7752 17.182 85.2712 17.098 84.8325 16.93C84.4032 16.7527 84.0392 16.5007 83.7405 16.174C83.4419 15.8473 83.2179 15.46 83.0685 15.012C82.9192 14.564 82.8445 14.06 82.8445 13.5C82.8445 12.9307 82.9192 12.408 83.0685 11.932C83.2179 11.456 83.4372 11.0407 83.7265 10.686C84.0159 10.3313 84.3705 10.0607 84.7905 9.874C85.2105 9.678 85.6912 9.58 86.2325 9.58C86.7085 9.58 87.1425 9.65933 87.5345 9.818C87.9265 9.97667 88.2579 10.224 88.5285 10.56C88.8085 10.8867 89.0185 11.302 89.1585 11.806C89.2985 12.3007 89.3545 12.884 89.3265 13.556L83.6425 13.598V12.73L88.5565 12.688L88.1225 13.276C88.1692 12.688 88.1132 12.2027 87.9545 11.82C87.7959 11.4373 87.5672 11.148 87.2685 10.952C86.9792 10.756 86.6339 10.658 86.2325 10.658C85.8032 10.658 85.4252 10.77 85.0985 10.994C84.7719 11.218 84.5199 11.54 84.3425 11.96C84.1745 12.38 84.0905 12.8887 84.0905 13.486C84.0905 14.3447 84.2819 15.0027 84.6645 15.46C85.0472 15.908 85.6165 16.132 86.3725 16.132C86.6619 16.132 86.9139 16.0993 87.1285 16.034C87.3525 15.9593 87.5392 15.8613 87.6885 15.74C87.8472 15.6093 87.9732 15.46 88.0665 15.292C88.1692 15.124 88.2485 14.942 88.3045 14.746L89.4245 15.012C89.3405 15.348 89.2099 15.6513 89.0325 15.922C88.8645 16.1833 88.6499 16.4073 88.3885 16.594C88.1365 16.7807 87.8425 16.9253 87.5065 17.028C87.1705 17.1307 86.7832 17.182 86.3445 17.182ZM95.3619 17L93.4439 9.762H94.7599L96.1879 15.922H96.4119L97.9379 9.762H99.5899L101.13 15.922H101.34L102.768 9.762H104.07L102.124 17H100.332L98.8339 10.854H98.6659L97.1679 17H95.3619ZM105.294 17V9.762H106.568V17H105.294ZM105.938 8.502C105.64 8.502 105.416 8.44133 105.266 8.32C105.117 8.19867 105.042 8.01667 105.042 7.774C105.042 7.53133 105.117 7.34933 105.266 7.228C105.416 7.10667 105.635 7.046 105.924 7.046C106.223 7.046 106.447 7.10667 106.596 7.228C106.746 7.34933 106.82 7.53133 106.82 7.774C106.82 8.00733 106.746 8.18933 106.596 8.32C106.447 8.44133 106.228 8.502 105.938 8.502ZM110.794 17.14C110.122 17.14 109.623 16.958 109.296 16.594C108.97 16.23 108.806 15.6747 108.806 14.928V10.826H107.714L107.728 9.762H108.414C108.648 9.762 108.816 9.72 108.918 9.636C109.03 9.552 109.096 9.412 109.114 9.216L109.254 8.124H110.038V9.762H112.124V10.84H110.038V14.9C110.038 15.2733 110.122 15.544 110.29 15.712C110.468 15.8707 110.72 15.95 111.046 15.95C111.224 15.95 111.406 15.9267 111.592 15.88C111.788 15.8333 111.98 15.74 112.166 15.6V16.874C111.896 16.9767 111.644 17.0467 111.41 17.084C111.186 17.1213 110.981 17.14 110.794 17.14ZM113.496 17V12.604V7.2H114.812V9.454C114.812 9.65933 114.802 9.86933 114.784 10.084C114.774 10.2893 114.756 10.4993 114.728 10.714C114.709 10.9287 114.686 11.148 114.658 11.372C114.63 11.5867 114.597 11.806 114.56 12.03H114.798C114.938 11.4793 115.115 11.0267 115.33 10.672C115.544 10.308 115.81 10.0373 116.128 9.86C116.454 9.67333 116.842 9.58 117.29 9.58C118.111 9.58 118.722 9.86933 119.124 10.448C119.534 11.0173 119.74 11.8713 119.74 13.01V17H118.452V13.136C118.452 12.296 118.321 11.6847 118.06 11.302C117.808 10.91 117.425 10.714 116.912 10.714C116.482 10.714 116.118 10.84 115.82 11.092C115.521 11.344 115.283 11.6847 115.106 12.114C114.938 12.5433 114.826 13.0333 114.77 13.584V17H113.496ZM128.578 17.182C127.822 17.182 127.146 17.0093 126.548 16.664C125.96 16.3093 125.498 15.782 125.162 15.082C124.826 14.382 124.658 13.4953 124.658 12.422C124.658 11.666 124.752 10.994 124.938 10.406C125.125 9.80867 125.396 9.3 125.75 8.88C126.114 8.46 126.558 8.138 127.08 7.914C127.603 7.69 128.21 7.578 128.9 7.578C129.414 7.578 129.876 7.64333 130.286 7.774C130.706 7.90467 131.07 8.09133 131.378 8.334C131.686 8.57667 131.934 8.87533 132.12 9.23C132.316 9.58467 132.438 9.986 132.484 10.434L131.252 10.784C131.215 10.28 131.08 9.87867 130.846 9.58C130.613 9.272 130.324 9.048 129.978 8.908C129.633 8.768 129.264 8.698 128.872 8.698C128.303 8.698 127.804 8.824 127.374 9.076C126.945 9.328 126.609 9.72933 126.366 10.28C126.124 10.8213 126.002 11.526 126.002 12.394C126.002 13.0753 126.077 13.6493 126.226 14.116C126.376 14.5827 126.576 14.9607 126.828 15.25C127.08 15.53 127.374 15.7353 127.71 15.866C128.056 15.9873 128.42 16.048 128.802 16.048C129.297 16.048 129.722 15.9547 130.076 15.768C130.431 15.5813 130.716 15.3013 130.93 14.928C131.154 14.5453 131.294 14.0647 131.35 13.486H129.236V12.464H132.624V13.85V17H131.574L131.84 14.48H131.63C131.509 15.0867 131.318 15.5907 131.056 15.992C130.804 16.384 130.473 16.6827 130.062 16.888C129.661 17.084 129.166 17.182 128.578 17.182ZM137.526 17.182C136.835 17.182 136.224 17.0327 135.692 16.734C135.169 16.426 134.759 15.9873 134.46 15.418C134.171 14.8487 134.026 14.158 134.026 13.346C134.026 12.506 134.18 11.8107 134.488 11.26C134.805 10.7 135.225 10.28 135.748 10C136.271 9.72 136.854 9.58 137.498 9.58C138.17 9.58 138.767 9.72933 139.29 10.028C139.822 10.3173 140.242 10.7467 140.55 11.316C140.858 11.876 141.012 12.5713 141.012 13.402C141.012 14.2327 140.858 14.928 140.55 15.488C140.251 16.048 139.836 16.4727 139.304 16.762C138.781 17.042 138.189 17.182 137.526 17.182ZM137.582 16.132C138.03 16.132 138.413 16.0247 138.73 15.81C139.057 15.586 139.304 15.2733 139.472 14.872C139.649 14.4707 139.738 13.9947 139.738 13.444C139.738 12.8747 139.645 12.3847 139.458 11.974C139.281 11.554 139.024 11.232 138.688 11.008C138.352 10.7747 137.946 10.658 137.47 10.658C137.041 10.658 136.663 10.7607 136.336 10.966C136.009 11.1713 135.757 11.4747 135.58 11.876C135.403 12.268 135.314 12.7487 135.314 13.318C135.314 14.1953 135.515 14.886 135.916 15.39C136.327 15.8847 136.882 16.132 137.582 16.132ZM145.694 17.182C145.004 17.182 144.392 17.0327 143.86 16.734C143.338 16.426 142.927 15.9873 142.628 15.418C142.339 14.8487 142.194 14.158 142.194 13.346C142.194 12.506 142.348 11.8107 142.656 11.26C142.974 10.7 143.394 10.28 143.916 10C144.439 9.72 145.022 9.58 145.666 9.58C146.338 9.58 146.936 9.72933 147.458 10.028C147.99 10.3173 148.41 10.7467 148.718 11.316C149.026 11.876 149.18 12.5713 149.18 13.402C149.18 14.2327 149.026 14.928 148.718 15.488C148.42 16.048 148.004 16.4727 147.472 16.762C146.95 17.042 146.357 17.182 145.694 17.182ZM145.75 16.132C146.198 16.132 146.581 16.0247 146.898 15.81C147.225 15.586 147.472 15.2733 147.64 14.872C147.818 14.4707 147.906 13.9947 147.906 13.444C147.906 12.8747 147.813 12.3847 147.626 11.974C147.449 11.554 147.192 11.232 146.856 11.008C146.52 10.7747 146.114 10.658 145.638 10.658C145.209 10.658 144.831 10.7607 144.504 10.966C144.178 11.1713 143.926 11.4747 143.748 11.876C143.571 12.268 143.482 12.7487 143.482 13.318C143.482 14.1953 143.683 14.886 144.084 15.39C144.495 15.8847 145.05 16.132 145.75 16.132ZM153.457 19.45C152.691 19.45 152.061 19.3893 151.567 19.268C151.081 19.156 150.722 18.9787 150.489 18.736C150.255 18.5027 150.139 18.2087 150.139 17.854C150.139 17.4247 150.307 17.07 150.643 16.79C150.979 16.51 151.487 16.3233 152.169 16.23V15.978C151.674 15.978 151.301 15.9173 151.049 15.796C150.797 15.6747 150.671 15.4927 150.671 15.25C150.671 14.998 150.797 14.788 151.049 14.62C151.301 14.4427 151.711 14.2793 152.281 14.13V13.864C151.711 13.8547 151.277 13.6867 150.979 13.36C150.68 13.024 150.531 12.59 150.531 12.058C150.531 11.582 150.657 11.1713 150.909 10.826C151.17 10.4713 151.543 10.2007 152.029 10.014C152.523 9.818 153.111 9.72 153.793 9.72H157.209V10.798L154.969 10.448V10.714C155.51 10.826 155.925 11.0173 156.215 11.288C156.504 11.5493 156.649 11.904 156.649 12.352C156.649 12.7533 156.532 13.1033 156.299 13.402C156.065 13.7007 155.72 13.934 155.263 14.102C154.815 14.2607 154.259 14.34 153.597 14.34C153.466 14.34 153.326 14.3353 153.177 14.326C153.037 14.3073 152.85 14.2793 152.617 14.242C152.365 14.4007 152.159 14.5453 152.001 14.676C151.851 14.8067 151.777 14.9233 151.777 15.026C151.777 15.1287 151.847 15.2127 151.987 15.278C152.136 15.334 152.313 15.3713 152.519 15.39C152.724 15.4087 152.915 15.418 153.093 15.418H154.731C154.917 15.418 155.151 15.4367 155.431 15.474C155.72 15.5113 156.005 15.5907 156.285 15.712C156.574 15.8333 156.817 16.02 157.013 16.272C157.209 16.524 157.307 16.874 157.307 17.322C157.307 17.826 157.157 18.2367 156.859 18.554C156.56 18.8713 156.126 19.1 155.557 19.24C154.987 19.38 154.287 19.45 153.457 19.45ZM153.485 18.4C154.11 18.4 154.614 18.358 154.997 18.274C155.389 18.1993 155.673 18.078 155.851 17.91C156.037 17.742 156.131 17.5273 156.131 17.266C156.131 17.0233 156.065 16.8367 155.935 16.706C155.813 16.566 155.659 16.468 155.473 16.412C155.286 16.356 155.099 16.3233 154.913 16.314C154.726 16.2953 154.567 16.286 154.437 16.286H152.799C152.257 16.4073 151.884 16.5753 151.679 16.79C151.473 17.0047 151.371 17.2333 151.371 17.476C151.371 17.7373 151.464 17.9333 151.651 18.064C151.837 18.1947 152.089 18.2833 152.407 18.33C152.733 18.3767 153.093 18.4 153.485 18.4ZM153.653 13.514C154.241 13.514 154.684 13.3927 154.983 13.15C155.281 12.9073 155.431 12.5807 155.431 12.17C155.431 11.7313 155.277 11.372 154.969 11.092C154.67 10.8027 154.217 10.658 153.611 10.658C153.023 10.658 152.57 10.7933 152.253 11.064C151.945 11.3347 151.791 11.6847 151.791 12.114C151.791 12.394 151.861 12.6413 152.001 12.856C152.15 13.0613 152.36 13.2247 152.631 13.346C152.911 13.458 153.251 13.514 153.653 13.514ZM158.663 17V7.2H159.937V17H158.663ZM165.004 17.182C164.434 17.182 163.93 17.098 163.492 16.93C163.062 16.7527 162.698 16.5007 162.4 16.174C162.101 15.8473 161.877 15.46 161.728 15.012C161.578 14.564 161.504 14.06 161.504 13.5C161.504 12.9307 161.578 12.408 161.728 11.932C161.877 11.456 162.096 11.0407 162.386 10.686C162.675 10.3313 163.03 10.0607 163.45 9.874C163.87 9.678 164.35 9.58 164.892 9.58C165.368 9.58 165.802 9.65933 166.194 9.818C166.586 9.97667 166.917 10.224 167.188 10.56C167.468 10.8867 167.678 11.302 167.818 11.806C167.958 12.3007 168.014 12.884 167.986 13.556L162.302 13.598V12.73L167.216 12.688L166.782 13.276C166.828 12.688 166.772 12.2027 166.614 11.82C166.455 11.4373 166.226 11.148 165.928 10.952C165.638 10.756 165.293 10.658 164.892 10.658C164.462 10.658 164.084 10.77 163.758 10.994C163.431 11.218 163.179 11.54 163.002 11.96C162.834 12.38 162.75 12.8887 162.75 13.486C162.75 14.3447 162.941 15.0027 163.324 15.46C163.706 15.908 164.276 16.132 165.032 16.132C165.321 16.132 165.573 16.0993 165.788 16.034C166.012 15.9593 166.198 15.8613 166.348 15.74C166.506 15.6093 166.632 15.46 166.726 15.292C166.828 15.124 166.908 14.942 166.964 14.746L168.084 15.012C168 15.348 167.869 15.6513 167.692 15.922C167.524 16.1833 167.309 16.4073 167.048 16.594C166.796 16.7807 166.502 16.9253 166.166 17.028C165.83 17.1307 165.442 17.182 165.004 17.182Z"
        fill="black" />
</svg>