<svg width="70" height="70" viewBox="0 0 70 70" fill="none" xmlns="http://www.w3.org/2000/svg">
    <circle cx="35" cy="35" r="35" fill="#FEFEFD" />
    <circle cx="35" cy="35" r="34.5" stroke="black" stroke-opacity="0.22" />
    <path d="M51 35V55H19V35" fill="white" />
    <path d="M55 25H15V35H55V25Z" fill="white" />
    <path
        d="M35 25H26C24.6739 25 23.4021 24.4732 22.4645 23.5355C21.5268 22.5979 21 21.3261 21 20C21 18.6739 21.5268 17.4021 22.4645 16.4645C23.4021 15.5268 24.6739 15 26 15C33 15 35 25 35 25Z"
        fill="white" />
    <path
        d="M35 25H44C45.3261 25 46.5979 24.4732 47.5355 23.5355C48.4732 22.5979 49 21.3261 49 20C49 18.6739 48.4732 17.4021 47.5355 16.4645C46.5979 15.5268 45.3261 15 44 15C37 15 35 25 35 25Z"
        fill="white" />
    <path
        d="M51 35V55H19V35M35 55V25M35 25H26C24.6739 25 23.4021 24.4732 22.4645 23.5355C21.5268 22.5979 21 21.3261 21 20C21 18.6739 21.5268 17.4021 22.4645 16.4645C23.4021 15.5268 24.6739 15 26 15C33 15 35 25 35 25ZM35 25H44C45.3261 25 46.5979 24.4732 47.5355 23.5355C48.4732 22.5979 49 21.3261 49 20C49 18.6739 48.4732 17.4021 47.5355 16.4645C46.5979 15.5268 45.3261 15 44 15C37 15 35 25 35 25ZM15 25H55V35H15V25Z"
        stroke="#9D696A" stroke-width="2" stroke-linecap="round" stroke-linejoin="round" />
</svg>