<svg width="187" height="69" viewBox="0 0 187 69" fill="none" xmlns="http://www.w3.org/2000/svg">
    <mask id="path-1-outside-1_293_2610" maskUnits="userSpaceOnUse" x="-1" y="-1" width="189"
        height="71" fill="black">
        <rect fill="white" x="-1" y="-1" width="189" height="71" />
        <path
            d="M25.1828 57.0547C21.9953 57.0547 18.925 56.5156 15.9719 55.4375C13.0656 54.3125 10.4641 52.6953 8.16719 50.5859C5.87032 48.4766 4.04219 45.8984 2.68282 42.8516C1.37032 39.8047 0.714066 36.3359 0.714066 32.4453C0.714066 28.5547 1.37032 25.0859 2.68282 22.0391C4.04219 18.9922 5.87032 16.4141 8.16719 14.3047C10.4641 12.1953 13.0656 10.6016 15.9719 9.52344C18.925 8.39844 21.9953 7.83594 25.1828 7.83594C28.3703 7.83594 31.4172 8.39844 34.3234 9.52344C37.2766 10.6016 39.9016 12.1953 42.1984 14.3047C44.4953 16.4141 46.3 18.9922 47.6125 22.0391C48.9719 25.0859 49.6516 28.5547 49.6516 32.4453C49.6516 36.3359 48.9719 39.8047 47.6125 42.8516C46.3 45.8984 44.4953 48.4766 42.1984 50.5859C39.9016 52.6953 37.2766 54.3125 34.3234 55.4375C31.4172 56.5156 28.3703 57.0547 25.1828 57.0547ZM50.9875 68.0234C48.175 68.0234 45.175 67.625 41.9875 66.8281C38.8 66.0781 35.7297 64.8828 32.7766 63.2422C29.8703 61.6016 27.3391 59.5391 25.1828 57.0547L35.7297 54.3828C37.0891 55.2266 38.5891 55.8359 40.2297 56.2109C41.8703 56.5859 43.6047 56.8203 45.4328 56.9141C47.2609 57.0078 49.1125 57.0547 50.9875 57.0547V68.0234ZM25.1828 44.75C27.2922 44.75 29.1672 44.2109 30.8078 43.1328C32.4953 42.0547 33.8078 40.6016 34.7453 38.7734C35.6828 36.8984 36.1516 34.7891 36.1516 32.4453C36.1516 30.1016 35.6828 28.0156 34.7453 26.1875C33.8078 24.3125 32.4953 22.8359 30.8078 21.7578C29.1672 20.6797 27.2922 20.1406 25.1828 20.1406C23.0734 20.1406 21.1984 20.6797 19.5578 21.7578C17.9172 22.8359 16.6047 24.3125 15.6203 26.1875C14.6828 28.0156 14.2141 30.1016 14.2141 32.4453C14.2141 34.7891 14.6828 36.8984 15.6203 38.7734C16.6047 40.6016 17.9172 42.0547 19.5578 43.1328C21.1984 44.2109 23.0734 44.75 25.1828 44.75ZM74.2203 57.0547C70.8922 57.0547 67.9391 56.4453 65.3609 55.2266C62.7828 54.0078 60.7438 52.25 59.2438 49.9531C57.7906 47.6562 57.0641 44.8906 57.0641 41.6562V20.1406H69.2281V38.4219C69.2281 40.8594 69.6031 42.6406 70.3531 43.7656C71.15 44.8906 72.4391 45.4531 74.2203 45.4531C76.0016 45.4531 77.2672 44.8906 78.0172 43.7656C78.8141 42.6406 79.2125 40.8594 79.2125 38.4219V20.1406H91.3766V41.6562C91.3766 44.8906 90.6266 47.6562 89.1266 49.9531C87.6734 52.25 85.6578 54.0078 83.0797 55.2266C80.5016 56.4453 77.5484 57.0547 74.2203 57.0547ZM110.039 14.6562C107.977 14.6562 106.195 13.9531 104.695 12.5469C103.195 11.0938 102.445 9.35938 102.445 7.34375C102.445 5.28125 103.195 3.54688 104.695 2.14062C106.195 0.734375 107.977 0.03125 110.039 0.03125C111.352 0.03125 112.57 0.359375 113.695 1.01562C114.867 1.67188 115.805 2.5625 116.508 3.6875C117.211 4.76562 117.562 5.98438 117.562 7.34375C117.562 8.65625 117.211 9.875 116.508 11C115.805 12.125 114.867 13.0156 113.695 13.6719C112.57 14.3281 111.352 14.6562 110.039 14.6562ZM105.047 56V20.1406H117.141V56H105.047ZM99.2109 29.9844V20.1406H117.141V29.9844H99.2109ZM137.209 49.1094V35.2578L150.358 20.1406H164.28L137.209 49.1094ZM126.803 56V5.375H138.897V56H126.803ZM149.655 56L140.936 40.9531L148.389 32.7266L164.913 56H149.655ZM179.356 14.6562C177.294 14.6562 175.512 13.9531 174.012 12.5469C172.512 11.0938 171.762 9.35938 171.762 7.34375C171.762 5.28125 172.512 3.54688 174.012 2.14062C175.512 0.734375 177.294 0.03125 179.356 0.03125C180.669 0.03125 181.887 0.359375 183.012 1.01562C184.184 1.67188 185.122 2.5625 185.825 3.6875C186.528 4.76562 186.88 5.98438 186.88 7.34375C186.88 8.65625 186.528 9.875 185.825 11C185.122 12.125 184.184 13.0156 183.012 13.6719C181.887 14.3281 180.669 14.6562 179.356 14.6562ZM174.364 56V20.1406H186.458V56H174.364ZM168.528 29.9844V20.1406H186.458V29.9844H168.528Z" />
    </mask>
    <path
        d="M25.1828 57.0547C21.9953 57.0547 18.925 56.5156 15.9719 55.4375C13.0656 54.3125 10.4641 52.6953 8.16719 50.5859C5.87032 48.4766 4.04219 45.8984 2.68282 42.8516C1.37032 39.8047 0.714066 36.3359 0.714066 32.4453C0.714066 28.5547 1.37032 25.0859 2.68282 22.0391C4.04219 18.9922 5.87032 16.4141 8.16719 14.3047C10.4641 12.1953 13.0656 10.6016 15.9719 9.52344C18.925 8.39844 21.9953 7.83594 25.1828 7.83594C28.3703 7.83594 31.4172 8.39844 34.3234 9.52344C37.2766 10.6016 39.9016 12.1953 42.1984 14.3047C44.4953 16.4141 46.3 18.9922 47.6125 22.0391C48.9719 25.0859 49.6516 28.5547 49.6516 32.4453C49.6516 36.3359 48.9719 39.8047 47.6125 42.8516C46.3 45.8984 44.4953 48.4766 42.1984 50.5859C39.9016 52.6953 37.2766 54.3125 34.3234 55.4375C31.4172 56.5156 28.3703 57.0547 25.1828 57.0547ZM50.9875 68.0234C48.175 68.0234 45.175 67.625 41.9875 66.8281C38.8 66.0781 35.7297 64.8828 32.7766 63.2422C29.8703 61.6016 27.3391 59.5391 25.1828 57.0547L35.7297 54.3828C37.0891 55.2266 38.5891 55.8359 40.2297 56.2109C41.8703 56.5859 43.6047 56.8203 45.4328 56.9141C47.2609 57.0078 49.1125 57.0547 50.9875 57.0547V68.0234ZM25.1828 44.75C27.2922 44.75 29.1672 44.2109 30.8078 43.1328C32.4953 42.0547 33.8078 40.6016 34.7453 38.7734C35.6828 36.8984 36.1516 34.7891 36.1516 32.4453C36.1516 30.1016 35.6828 28.0156 34.7453 26.1875C33.8078 24.3125 32.4953 22.8359 30.8078 21.7578C29.1672 20.6797 27.2922 20.1406 25.1828 20.1406C23.0734 20.1406 21.1984 20.6797 19.5578 21.7578C17.9172 22.8359 16.6047 24.3125 15.6203 26.1875C14.6828 28.0156 14.2141 30.1016 14.2141 32.4453C14.2141 34.7891 14.6828 36.8984 15.6203 38.7734C16.6047 40.6016 17.9172 42.0547 19.5578 43.1328C21.1984 44.2109 23.0734 44.75 25.1828 44.75ZM74.2203 57.0547C70.8922 57.0547 67.9391 56.4453 65.3609 55.2266C62.7828 54.0078 60.7438 52.25 59.2438 49.9531C57.7906 47.6562 57.0641 44.8906 57.0641 41.6562V20.1406H69.2281V38.4219C69.2281 40.8594 69.6031 42.6406 70.3531 43.7656C71.15 44.8906 72.4391 45.4531 74.2203 45.4531C76.0016 45.4531 77.2672 44.8906 78.0172 43.7656C78.8141 42.6406 79.2125 40.8594 79.2125 38.4219V20.1406H91.3766V41.6562C91.3766 44.8906 90.6266 47.6562 89.1266 49.9531C87.6734 52.25 85.6578 54.0078 83.0797 55.2266C80.5016 56.4453 77.5484 57.0547 74.2203 57.0547ZM110.039 14.6562C107.977 14.6562 106.195 13.9531 104.695 12.5469C103.195 11.0938 102.445 9.35938 102.445 7.34375C102.445 5.28125 103.195 3.54688 104.695 2.14062C106.195 0.734375 107.977 0.03125 110.039 0.03125C111.352 0.03125 112.57 0.359375 113.695 1.01562C114.867 1.67188 115.805 2.5625 116.508 3.6875C117.211 4.76562 117.562 5.98438 117.562 7.34375C117.562 8.65625 117.211 9.875 116.508 11C115.805 12.125 114.867 13.0156 113.695 13.6719C112.57 14.3281 111.352 14.6562 110.039 14.6562ZM105.047 56V20.1406H117.141V56H105.047ZM99.2109 29.9844V20.1406H117.141V29.9844H99.2109ZM137.209 49.1094V35.2578L150.358 20.1406H164.28L137.209 49.1094ZM126.803 56V5.375H138.897V56H126.803ZM149.655 56L140.936 40.9531L148.389 32.7266L164.913 56H149.655ZM179.356 14.6562C177.294 14.6562 175.512 13.9531 174.012 12.5469C172.512 11.0938 171.762 9.35938 171.762 7.34375C171.762 5.28125 172.512 3.54688 174.012 2.14062C175.512 0.734375 177.294 0.03125 179.356 0.03125C180.669 0.03125 181.887 0.359375 183.012 1.01562C184.184 1.67188 185.122 2.5625 185.825 3.6875C186.528 4.76562 186.88 5.98438 186.88 7.34375C186.88 8.65625 186.528 9.875 185.825 11C185.122 12.125 184.184 13.0156 183.012 13.6719C181.887 14.3281 180.669 14.6562 179.356 14.6562ZM174.364 56V20.1406H186.458V56H174.364ZM168.528 29.9844V20.1406H186.458V29.9844H168.528Z"
        fill="#9D696A" />
    <path
        d="M15.9719 55.4375L15.6109 56.3701L15.6199 56.3735L15.6289 56.3769L15.9719 55.4375ZM2.68282 42.8516L1.76433 43.2472L1.76958 43.259L2.68282 42.8516ZM2.68282 22.0391L1.76951 21.6316L1.7644 21.6434L2.68282 22.0391ZM15.9719 9.52344L16.3197 10.461L16.3279 10.4579L15.9719 9.52344ZM34.3234 9.52344L33.9624 10.456L33.9714 10.4595L33.9805 10.4628L34.3234 9.52344ZM47.6125 22.0391L46.694 22.4347L46.6993 22.4465L47.6125 22.0391ZM47.6125 42.8516L46.6992 42.4441L46.6941 42.4559L47.6125 42.8516ZM34.3234 55.4375L34.6713 56.3751L34.6794 56.372L34.3234 55.4375ZM50.9875 68.0234V69.0234H51.9875V68.0234H50.9875ZM41.9875 66.8281L42.2301 65.8579L42.2165 65.8547L41.9875 66.8281ZM32.7766 63.2422L32.285 64.113L32.2909 64.1163L32.7766 63.2422ZM25.1828 57.0547L24.9372 56.0853L23.3634 56.484L24.4276 57.7102L25.1828 57.0547ZM35.7297 54.3828L36.2571 53.5332L35.896 53.3091L35.4841 53.4134L35.7297 54.3828ZM50.9875 57.0547H51.9875V56.0547H50.9875V57.0547ZM30.8078 43.1328L30.2694 42.29L30.2586 42.2971L30.8078 43.1328ZM34.7453 38.7734L35.6352 39.2298L35.6397 39.2207L34.7453 38.7734ZM34.7453 26.1875L33.8508 26.6347L33.8555 26.6438L34.7453 26.1875ZM30.8078 21.7578L30.2586 22.5936L30.2694 22.6005L30.8078 21.7578ZM15.6203 26.1875L14.7349 25.7226L14.7305 25.7312L15.6203 26.1875ZM15.6203 38.7734L14.7259 39.2207L14.7327 39.2342L14.7398 39.2475L15.6203 38.7734ZM25.1828 56.0547C22.1106 56.0547 19.1565 55.5356 16.3148 54.4981L15.6289 56.3769C18.6935 57.4957 21.88 58.0547 25.1828 58.0547V56.0547ZM16.3329 54.5049C13.5432 53.425 11.0486 51.8744 8.8436 49.8494L7.49079 51.3225C9.87957 53.5162 12.5881 55.2 15.6109 56.3701L16.3329 54.5049ZM8.8436 49.8494C6.65419 47.8387 4.90372 45.3751 3.59605 42.4441L1.76958 43.259C3.18066 46.4218 5.08644 49.1144 7.49079 51.3225L8.8436 49.8494ZM3.60123 42.4559C2.35103 39.5537 1.71407 36.2231 1.71407 32.4453H-0.285934C-0.285934 36.4488 0.389599 40.0557 1.7644 43.2472L3.60123 42.4559ZM1.71407 32.4453C1.71407 28.6675 2.35103 25.3369 3.60123 22.4347L1.7644 21.6434C0.389599 24.8349 -0.285934 28.4418 -0.285934 32.4453H1.71407ZM3.59605 22.4465C4.90372 19.5155 6.65419 17.0519 8.8436 15.0412L7.49079 13.5682C5.08644 15.7762 3.18066 18.4689 1.76958 21.6316L3.59605 22.4465ZM8.8436 15.0412C11.0456 13.019 13.5357 11.4938 16.3197 10.461L15.6241 8.58587C12.5955 9.70936 9.88254 11.3717 7.49079 13.5682L8.8436 15.0412ZM16.3279 10.4579C19.1663 9.37662 22.1159 8.83594 25.1828 8.83594V6.83594C21.8747 6.83594 18.6837 7.42026 15.6159 8.58895L16.3279 10.4579ZM25.1828 8.83594C28.2497 8.83594 31.174 9.3766 33.9624 10.456L34.6844 8.59087C31.6604 7.42027 28.4909 6.83594 25.1828 6.83594V8.83594ZM33.9805 10.4628C36.8113 11.4962 39.3227 13.0214 41.522 15.0412L42.8748 13.5682C40.4804 11.3692 37.7419 9.70688 34.6664 8.58408L33.9805 10.4628ZM41.522 15.0412C43.7086 17.0493 45.4337 19.5088 46.6941 22.4347L48.5309 21.6434C47.1663 18.4756 45.282 15.7788 42.8748 13.5682L41.522 15.0412ZM46.6993 22.4465C47.9927 25.3456 48.6516 28.672 48.6516 32.4453H50.6516C50.6516 28.4374 49.951 24.8263 48.5257 21.6316L46.6993 22.4465ZM48.6516 32.4453C48.6516 36.2187 47.9927 39.545 46.6993 42.4441L48.5257 43.259C49.951 40.0644 50.6516 36.4532 50.6516 32.4453H48.6516ZM46.6941 42.4559C45.4337 45.3818 43.7086 47.8413 41.522 49.8494L42.8748 51.3225C45.282 49.1118 47.1663 46.4151 48.5309 43.2472L46.6941 42.4559ZM41.522 49.8494C39.3197 51.8719 36.8038 53.4225 33.9674 54.503L34.6794 56.372C37.7493 55.2025 40.4834 53.5187 42.8748 51.3225L41.522 49.8494ZM33.9756 54.4999C31.1839 55.5356 28.255 56.0547 25.1828 56.0547V58.0547C28.4856 58.0547 31.6505 57.4957 34.6712 56.3751L33.9756 54.4999ZM50.9875 67.0234C48.2691 67.0234 45.3511 66.6383 42.23 65.858L41.745 67.7983C44.9989 68.6117 48.0809 69.0234 50.9875 69.0234V67.0234ZM42.2165 65.8547C39.1216 65.1265 36.1373 63.9653 33.2622 62.368L32.2909 64.1163C35.322 65.8003 38.4784 67.0298 41.7585 67.8015L42.2165 65.8547ZM33.2682 62.3714C30.46 60.7861 28.0183 58.796 25.938 56.3992L24.4276 57.7102C26.6599 60.2821 29.2807 62.417 32.285 64.113L33.2682 62.3714ZM25.4284 58.0241L35.9753 55.3522L35.4841 53.4134L24.9372 56.0853L25.4284 58.0241ZM35.2023 55.2325C36.6604 56.1375 38.2641 56.7875 40.0069 57.1858L40.4525 55.2361C38.914 54.8844 37.5177 54.3157 36.2571 53.5332L35.2023 55.2325ZM40.0069 57.1858C41.7086 57.5748 43.5007 57.8163 45.3816 57.9128L45.484 55.9154C43.7087 55.8243 42.0321 55.5971 40.4525 55.2361L40.0069 57.1858ZM45.3816 57.9128C47.2272 58.0074 49.0958 58.0547 50.9875 58.0547V56.0547C49.1292 56.0547 47.2947 56.0082 45.484 55.9154L45.3816 57.9128ZM49.9875 57.0547V68.0234H51.9875V57.0547H49.9875ZM25.1828 45.75C27.4721 45.75 29.541 45.1619 31.357 43.9685L30.2586 42.2971C28.7934 43.26 27.1122 43.75 25.1828 43.75V45.75ZM31.3462 43.9755C33.187 42.7994 34.619 41.2112 35.6351 39.2298L33.8555 38.3171C32.9966 39.9919 31.8036 41.3099 30.2694 42.2901L31.3462 43.9755ZM35.6397 39.2207C36.6545 37.1911 37.1516 34.9258 37.1516 32.4453H35.1516C35.1516 34.6523 34.7111 36.6057 33.8509 38.3262L35.6397 39.2207ZM37.1516 32.4453C37.1516 29.9654 36.6547 27.7193 35.6351 25.7312L33.8555 26.6438C34.711 28.312 35.1516 30.2378 35.1516 32.4453H37.1516ZM35.6397 25.7403C34.6254 23.7116 33.1932 22.0951 31.3462 20.9151L30.2694 22.6005C31.7974 23.5767 32.9902 24.9134 33.8509 26.6347L35.6397 25.7403ZM31.357 20.9221C29.541 19.7287 27.4721 19.1406 25.1828 19.1406V21.1406C27.1122 21.1406 28.7934 21.6306 30.2586 22.5935L31.357 20.9221ZM25.1828 19.1406C22.8935 19.1406 20.8246 19.7287 19.0086 20.9221L20.107 22.5935C21.5722 21.6306 23.2534 21.1406 25.1828 21.1406V19.1406ZM19.0086 20.9221C17.2153 22.1006 15.7917 23.7097 14.7349 25.7227L16.5057 26.6523C17.4177 24.9153 18.6191 23.5713 20.107 22.5935L19.0086 20.9221ZM14.7305 25.7312C13.711 27.7193 13.2141 29.9654 13.2141 32.4453H15.2141C15.2141 30.2378 15.6547 28.312 16.5101 26.6438L14.7305 25.7312ZM13.2141 32.4453C13.2141 34.9258 13.7111 37.1911 14.7259 39.2207L16.5147 38.3262C15.6545 36.6057 15.2141 34.6523 15.2141 32.4453H13.2141ZM14.7398 39.2475C15.7982 41.2131 17.2213 42.7939 19.0086 43.9685L20.107 42.2971C18.6131 41.3154 17.4111 39.99 16.5008 38.2993L14.7398 39.2475ZM19.0086 43.9685C20.8246 45.1619 22.8935 45.75 25.1828 45.75V43.75C23.2534 43.75 21.5722 43.26 20.107 42.2971L19.0086 43.9685ZM59.2438 49.9531L58.3987 50.4878L58.4025 50.4939L58.4065 50.4999L59.2438 49.9531ZM57.0641 20.1406V19.1406H56.0641V20.1406H57.0641ZM69.2281 20.1406H70.2281V19.1406H69.2281V20.1406ZM70.3531 43.7656L69.5211 44.3203L69.5289 44.3321L69.5371 44.3436L70.3531 43.7656ZM78.0172 43.7656L77.2012 43.1876L77.193 43.1992L77.1851 43.2109L78.0172 43.7656ZM79.2125 20.1406V19.1406H78.2125V20.1406H79.2125ZM91.3766 20.1406H92.3766V19.1406H91.3766V20.1406ZM89.1266 49.9531L88.2893 49.4063L88.2853 49.4124L88.2815 49.4185L89.1266 49.9531ZM74.2203 56.0547C71.0154 56.0547 68.2123 55.4684 65.7883 54.3225L64.9336 56.1306C67.6659 57.4223 70.7689 58.0547 74.2203 58.0547V56.0547ZM65.7883 54.3225C63.3703 53.1794 61.4759 51.5423 60.081 49.4063L58.4065 50.4999C60.0116 52.9577 62.1953 54.8362 64.9336 56.1306L65.7883 54.3225ZM60.0888 49.4185C58.7547 47.3098 58.0641 44.7377 58.0641 41.6562H56.0641C56.0641 45.0435 56.8265 48.0027 58.3987 50.4878L60.0888 49.4185ZM58.0641 41.6562V20.1406H56.0641V41.6562H58.0641ZM57.0641 21.1406H69.2281V19.1406H57.0641V21.1406ZM68.2281 20.1406V38.4219H70.2281V20.1406H68.2281ZM68.2281 38.4219C68.2281 40.9192 68.6043 42.9452 69.5211 44.3203L71.1852 43.2109C70.6019 42.336 70.2281 40.7995 70.2281 38.4219H68.2281ZM69.5371 44.3436C70.5749 45.8087 72.2197 46.4531 74.2203 46.4531V44.4531C72.6584 44.4531 71.7251 43.9725 71.1692 43.1876L69.5371 44.3436ZM74.2203 46.4531C76.2178 46.4531 77.8566 45.8092 78.8492 44.3203L77.1851 43.2109C76.6777 43.972 75.7853 44.4531 74.2203 44.4531V46.4531ZM78.8332 44.3436C79.8111 42.9631 80.2125 40.9263 80.2125 38.4219H78.2125C78.2125 40.7924 77.817 42.3181 77.2012 43.1876L78.8332 44.3436ZM80.2125 38.4219V20.1406H78.2125V38.4219H80.2125ZM79.2125 21.1406H91.3766V19.1406H79.2125V21.1406ZM90.3766 20.1406V41.6562H92.3766V20.1406H90.3766ZM90.3766 41.6562C90.3766 44.7318 89.6653 47.2994 88.2893 49.4063L89.9638 50.4999C91.5878 48.0131 92.3766 45.0494 92.3766 41.6562H90.3766ZM88.2815 49.4185C86.9349 51.547 85.0678 53.1806 82.6523 54.3225L83.5071 56.1306C86.2478 54.835 88.412 52.953 89.9716 50.4878L88.2815 49.4185ZM82.6523 54.3225C80.2284 55.4684 77.4252 56.0547 74.2203 56.0547V58.0547C77.6717 58.0547 80.7748 57.4223 83.5071 56.1306L82.6523 54.3225ZM104.695 12.5469L104 13.2651L104.005 13.2708L104.011 13.2764L104.695 12.5469ZM113.695 1.01562L113.191 1.8794L113.199 1.88383L113.207 1.88813L113.695 1.01562ZM116.508 3.6875L115.66 4.2175L115.665 4.22568L115.67 4.23377L116.508 3.6875ZM113.695 13.6719L113.207 12.7994L113.199 12.8037L113.191 12.8081L113.695 13.6719ZM105.047 56H104.047V57H105.047V56ZM105.047 20.1406V19.1406H104.047V20.1406H105.047ZM117.141 20.1406H118.141V19.1406H117.141V20.1406ZM117.141 56V57H118.141V56H117.141ZM99.2109 29.9844H98.2109V30.9844H99.2109V29.9844ZM99.2109 20.1406V19.1406H98.2109V20.1406H99.2109ZM117.141 20.1406H118.141V19.1406H117.141V20.1406ZM117.141 29.9844V30.9844H118.141V29.9844H117.141ZM110.039 13.6562C108.23 13.6562 106.693 13.0492 105.379 11.8173L104.011 13.2764C105.697 14.857 107.723 15.6562 110.039 15.6562V13.6562ZM105.391 11.8286C104.078 10.5562 103.445 9.07787 103.445 7.34375H101.445C101.445 9.64088 102.313 11.6313 104 13.2651L105.391 11.8286ZM103.445 7.34375C103.445 5.55668 104.082 4.0867 105.379 2.87016L104.011 1.41109C102.309 3.00705 101.445 5.00582 101.445 7.34375H103.445ZM105.379 2.87016C106.693 1.63828 108.23 1.03125 110.039 1.03125V-0.96875C107.723 -0.96875 105.697 -0.169527 104.011 1.41109L105.379 2.87016ZM110.039 1.03125C111.176 1.03125 112.221 1.31309 113.191 1.8794L114.199 0.151846C112.92 -0.594341 111.527 -0.96875 110.039 -0.96875V1.03125ZM113.207 1.88813C114.234 2.4633 115.047 3.2369 115.66 4.2175L117.356 3.1575C116.562 1.8881 115.501 0.880447 114.184 0.143119L113.207 1.88813ZM115.67 4.23377C116.261 5.14008 116.562 6.16692 116.562 7.34375H118.562C118.562 5.80183 118.161 4.39117 117.345 3.14123L115.67 4.23377ZM116.562 7.34375C116.562 8.4667 116.265 9.50212 115.66 10.47L117.356 11.53C118.157 10.2479 118.562 8.8458 118.562 7.34375H116.562ZM115.66 10.47C115.047 11.4506 114.234 12.2242 113.207 12.7994L114.184 14.5444C115.501 13.8071 116.562 12.7994 117.356 11.53L115.66 10.47ZM113.191 12.8081C112.221 13.3744 111.176 13.6562 110.039 13.6562V15.6562C111.527 15.6562 112.92 15.2818 114.199 14.5357L113.191 12.8081ZM106.047 56V20.1406H104.047V56H106.047ZM105.047 21.1406H117.141V19.1406H105.047V21.1406ZM116.141 20.1406V56H118.141V20.1406H116.141ZM117.141 55H105.047V57H117.141V55ZM100.211 29.9844V20.1406H98.2109V29.9844H100.211ZM99.2109 21.1406H117.141V19.1406H99.2109V21.1406ZM116.141 20.1406V29.9844H118.141V20.1406H116.141ZM117.141 28.9844H99.2109V30.9844H117.141V28.9844ZM137.209 49.1094H136.209V51.6441L137.94 49.7921L137.209 49.1094ZM137.209 35.2578L136.455 34.6015L136.209 34.8838V35.2578H137.209ZM150.358 20.1406V19.1406H149.902L149.603 19.4844L150.358 20.1406ZM164.28 20.1406L165.01 20.8234L166.583 19.1406H164.28V20.1406ZM126.803 56H125.803V57H126.803V56ZM126.803 5.375V4.375H125.803V5.375H126.803ZM138.897 5.375H139.897V4.375H138.897V5.375ZM138.897 56V57H139.897V56H138.897ZM149.655 56L148.789 56.5014L149.078 57H149.655V56ZM140.936 40.9531L140.195 40.2817L139.705 40.8228L140.071 41.4545L140.936 40.9531ZM148.389 32.7266L149.204 32.1477L148.484 31.1326L147.648 32.0552L148.389 32.7266ZM164.913 56V57H166.849L165.728 55.4211L164.913 56ZM138.209 49.1094V35.2578H136.209V49.1094H138.209ZM137.964 35.9141L151.112 20.7969L149.603 19.4844L136.455 34.6015L137.964 35.9141ZM150.358 21.1406H164.28V19.1406H150.358V21.1406ZM163.549 19.4579L136.479 48.4266L137.94 49.7921L165.01 20.8234L163.549 19.4579ZM127.803 56V5.375H125.803V56H127.803ZM126.803 6.375H138.897V4.375H126.803V6.375ZM137.897 5.375V56H139.897V5.375H137.897ZM138.897 55H126.803V57H138.897V55ZM150.52 55.4986L141.801 40.4518L140.071 41.4545L148.789 56.5014L150.52 55.4986ZM141.677 41.6245L149.13 33.398L147.648 32.0552L140.195 40.2817L141.677 41.6245ZM147.574 33.3055L164.097 56.5789L165.728 55.4211L149.204 32.1477L147.574 33.3055ZM164.913 55H149.655V57H164.913V55ZM174.012 12.5469L173.317 13.2651L173.323 13.2708L173.329 13.2764L174.012 12.5469ZM183.012 1.01562L182.509 1.8794L182.516 1.88383L182.524 1.88813L183.012 1.01562ZM185.825 3.6875L184.977 4.2175L184.982 4.22568L184.987 4.23377L185.825 3.6875ZM183.012 13.6719L182.524 12.7994L182.516 12.8037L182.509 12.8081L183.012 13.6719ZM174.364 56H173.364V57H174.364V56ZM174.364 20.1406V19.1406H173.364V20.1406H174.364ZM186.458 20.1406H187.458V19.1406H186.458V20.1406ZM186.458 56V57H187.458V56H186.458ZM168.528 29.9844H167.528V30.9844H168.528V29.9844ZM168.528 20.1406V19.1406H167.528V20.1406H168.528ZM186.458 20.1406H187.458V19.1406H186.458V20.1406ZM186.458 29.9844V30.9844H187.458V29.9844H186.458ZM179.356 13.6562C177.547 13.6562 176.01 13.0492 174.696 11.8173L173.329 13.2764C175.015 14.857 177.041 15.6562 179.356 15.6562V13.6562ZM174.708 11.8286C173.395 10.5562 172.762 9.07787 172.762 7.34375H170.762C170.762 9.64088 171.63 11.6313 173.317 13.2651L174.708 11.8286ZM172.762 7.34375C172.762 5.55668 173.399 4.0867 174.696 2.87016L173.329 1.41109C171.626 3.00705 170.762 5.00582 170.762 7.34375H172.762ZM174.696 2.87016C176.01 1.63828 177.547 1.03125 179.356 1.03125V-0.96875C177.041 -0.96875 175.015 -0.169527 173.329 1.41109L174.696 2.87016ZM179.356 1.03125C180.493 1.03125 181.538 1.31309 182.509 1.8794L183.516 0.151846C182.237 -0.594341 180.844 -0.96875 179.356 -0.96875V1.03125ZM182.524 1.88813C183.551 2.4633 184.364 3.2369 184.977 4.2175L186.673 3.1575C185.88 1.8881 184.818 0.880447 183.501 0.143119L182.524 1.88813ZM184.987 4.23377C185.578 5.14008 185.88 6.16692 185.88 7.34375H187.88C187.88 5.80183 187.478 4.39117 186.663 3.14123L184.987 4.23377ZM185.88 7.34375C185.88 8.4667 185.582 9.50212 184.977 10.47L186.673 11.53C187.474 10.2479 187.88 8.8458 187.88 7.34375H185.88ZM184.977 10.47C184.364 11.4506 183.551 12.2242 182.524 12.7994L183.501 14.5444C184.818 13.8071 185.88 12.7994 186.673 11.53L184.977 10.47ZM182.509 12.8081C181.538 13.3744 180.493 13.6562 179.356 13.6562V15.6562C180.844 15.6562 182.237 15.2818 183.516 14.5357L182.509 12.8081ZM175.364 56V20.1406H173.364V56H175.364ZM174.364 21.1406H186.458V19.1406H174.364V21.1406ZM185.458 20.1406V56H187.458V20.1406H185.458ZM186.458 55H174.364V57H186.458V55ZM169.528 29.9844V20.1406H167.528V29.9844H169.528ZM168.528 21.1406H186.458V19.1406H168.528V21.1406ZM185.458 20.1406V29.9844H187.458V20.1406H185.458ZM186.458 28.9844H168.528V30.9844H186.458V28.9844Z"
        fill="#9D696A" mask="url(#path-1-outside-1_293_2610)" />
</svg>