<svg width="358" height="24" viewBox="0 0 358 24" fill="none" xmlns="http://www.w3.org/2000/svg">
    <path d="M0 12H154" stroke="#E5E7EE" />
    <path
        d="M176.05 17.192C175.282 17.192 174.61 17.064 174.034 16.808C173.458 16.5413 172.973 16.168 172.578 15.688C172.194 15.208 171.906 14.6373 171.714 13.976C171.522 13.3147 171.426 12.5733 171.426 11.752C171.426 10.536 171.623 9.52267 172.018 8.712C172.413 7.89067 172.957 7.27733 173.65 6.872C174.343 6.456 175.138 6.248 176.034 6.248C176.738 6.248 177.373 6.37067 177.938 6.616C178.503 6.86133 178.983 7.224 179.378 7.704C179.783 8.184 180.093 8.77067 180.306 9.464C180.53 10.1467 180.642 10.9253 180.642 11.8C180.642 12.6 180.546 13.3307 180.354 13.992C180.162 14.6533 179.874 15.224 179.49 15.704C179.106 16.184 178.626 16.552 178.05 16.808C177.474 17.064 176.807 17.192 176.05 17.192ZM176.034 16.136C176.759 16.136 177.373 15.9653 177.874 15.624C178.386 15.272 178.77 14.776 179.026 14.136C179.293 13.496 179.426 12.7173 179.426 11.8C179.426 10.8613 179.293 10.0613 179.026 9.4C178.759 8.728 178.37 8.216 177.858 7.864C177.346 7.50133 176.733 7.32 176.018 7.32C175.325 7.32 174.722 7.496 174.21 7.848C173.709 8.18933 173.319 8.69067 173.042 9.352C172.775 10.0133 172.642 10.824 172.642 11.784C172.642 12.4773 172.717 13.096 172.866 13.64C173.015 14.184 173.234 14.6427 173.522 15.016C173.81 15.3787 174.162 15.656 174.578 15.848C175.005 16.04 175.49 16.136 176.034 16.136ZM182.77 17V12.408V8.76H183.89L183.714 11.688H183.97C184.077 11.08 184.226 10.5413 184.418 10.072C184.621 9.60267 184.887 9.23467 185.218 8.968C185.549 8.70133 185.949 8.568 186.418 8.568C186.535 8.568 186.669 8.57867 186.818 8.6C186.967 8.61067 187.133 8.648 187.314 8.712L187.234 9.944C187.085 9.89067 186.93 9.848 186.77 9.816C186.621 9.784 186.477 9.768 186.338 9.768C185.911 9.768 185.549 9.91733 185.25 10.216C184.951 10.5147 184.695 10.9093 184.482 11.4C184.269 11.8907 184.093 12.4293 183.954 13.016V17H182.77Z"
        fill="black" />
    <path d="M204 12H358" stroke="#E5E7EE" />
</svg>