<svg width="70" height="70" viewBox="0 0 70 70" fill="none" xmlns="http://www.w3.org/2000/svg">
    <circle cx="35" cy="35" r="35" fill="#FEFEFD" />
    <circle cx="35" cy="35" r="34.5" stroke="black" stroke-opacity="0.22" />
    <path
        d="M37.0868 31.506C39.296 33.7594 40.9597 36.1598 41.8619 38.2207C42.8292 40.4251 42.9287 42.2972 41.9339 43.3119C41.4674 43.7878 40.8122 44.0187 40.0266 44.0257L22.5902 51.9511C18.1719 54.1801 15.9971 54.516 15.2527 53.3193C14.5495 52.1891 15.383 49.7922 16.8993 46.3876L24.8268 28.1713C24.8885 27.517 25.1081 26.9711 25.5094 26.5618C26.5042 25.547 28.3395 25.6485 30.5006 26.6352C32.5245 27.5555 34.8777 29.2491 37.0868 31.506ZM54.7394 42.1222C55.2608 42.6541 55.2608 43.5183 54.7394 44.0502C54.218 44.5821 53.3707 44.5821 52.8493 44.0502C52.3279 43.5183 52.3279 42.6541 52.8493 42.1222C53.3707 41.5903 54.2146 41.5903 54.7394 42.1222ZM56.0086 35.7679C56.3791 35.6979 56.7359 35.9463 56.8045 36.3242C56.8731 36.7021 56.6295 37.066 56.259 37.136C54.4444 37.4859 52.9179 36.3522 51.3399 35.1835C49.2646 33.6439 47.0863 32.0273 44.3317 34.9141C44.071 35.1905 43.6388 35.194 43.3678 34.9281C43.0968 34.6621 43.0934 34.2213 43.3541 33.9448C46.9319 30.1938 49.6007 32.1708 52.1392 34.0568C53.477 35.047 54.7703 36.0058 56.0086 35.7679ZM56.3208 15.0078C56.6981 15.0078 57 15.3192 57 15.7006C57 16.0855 56.6947 16.3934 56.3208 16.3934C53.1855 16.4004 52.3622 18.9757 51.4909 21.698C50.4789 24.8647 49.4086 28.2028 45.1619 28.9446C44.7674 29.0146 44.3626 29.0811 43.9167 29.1441C43.4913 29.2036 43.0694 29.2526 42.644 29.2805C42.2667 29.305 41.9442 29.0146 41.9202 28.6297C41.8962 28.2448 42.1809 27.9159 42.5582 27.8914C42.9562 27.8634 43.3472 27.8214 43.7348 27.7654C44.1053 27.713 44.5135 27.6465 44.932 27.573C48.3658 26.9746 49.3057 24.0459 50.1908 21.2711C51.2233 18.0555 52.1941 15.0183 56.3208 15.0078ZM32.2329 11.5682C32.3015 11.1903 32.6583 10.9418 33.0287 11.0118C33.3992 11.0818 33.6428 11.4457 33.5742 11.8236C33.3512 13.0238 34.1676 14.3044 35.0081 15.6201C36.7541 18.3599 38.5893 21.2326 33.9687 24.9627C33.6736 25.2006 33.2449 25.1481 33.0116 24.8472C32.7783 24.5463 32.8298 24.1089 33.1248 23.871C36.7712 20.9282 35.2859 18.5943 33.8657 16.3724C32.8709 14.8223 31.907 13.3142 32.2329 11.5682ZM47.7312 13.6326L46.4277 16.2569L48.3521 18.2409L45.625 17.863L44.3111 20.3474L43.8789 17.5831L41.1587 17.0932L43.6011 15.8021L43.2031 12.9153L45.179 14.9833L47.7312 13.6326ZM41.5634 22.1494C42.0849 22.6813 42.0849 23.5455 41.5634 24.0774C41.042 24.6093 40.1947 24.6093 39.6733 24.0774C39.1519 23.5455 39.1519 22.6813 39.6733 22.1494C40.1947 21.6175 41.042 21.6175 41.5634 22.1494ZM39.6116 12.8173C40.133 13.3492 40.133 14.2135 39.6116 14.7453C39.0902 15.2772 38.2429 15.2772 37.7215 14.7453C37.2 14.2135 37.2 13.3492 37.7215 12.8173C38.2429 12.2855 39.0902 12.2855 39.6116 12.8173ZM30.9808 19.5671C31.5022 20.0989 31.5022 20.9632 30.9808 21.4951C30.4594 22.0269 29.6121 22.0269 29.0907 21.4951C28.5693 20.9632 28.5693 20.0989 29.0907 19.5671C29.6121 19.0352 30.456 19.0352 30.9808 19.5671ZM53.9744 27.3455C54.4958 27.8774 54.4958 28.7417 53.9744 29.2735C53.453 29.8054 52.6057 29.8054 52.0843 29.2735C51.5629 28.7417 51.5629 27.8774 52.0843 27.3455C52.6057 26.8137 53.453 26.8137 53.9744 27.3455ZM49.7757 37.8078L48.1531 38.889L48.6197 40.7016L47.1583 39.5469L45.5769 40.5406L46.2356 38.7841L44.8154 37.5664L46.6609 37.6504L47.3813 35.8343L47.8478 37.7134L49.7757 37.8078ZM26.0994 32.7132C27.4579 36.7791 30.4526 42.0312 34.7473 45.2854L38.188 43.7178C37.7866 43.5918 37.3716 43.4309 36.9393 43.2349C34.9189 42.3147 32.5656 40.6176 30.3565 38.3642C28.5178 36.4887 27.0565 34.5117 26.0994 32.7132ZM29.7871 47.5388C26.1097 44.2427 23.9246 40.6491 22.1065 36.9855L19.8253 42.2307C20.7035 44.0922 23.1116 47.2344 25.4134 49.5263L29.7871 47.5388ZM20.827 51.6537C19.1118 50.1456 18.3263 49.2254 17.479 47.6088C16.3195 50.2716 15.6952 52.0946 16.1103 52.7594C16.4739 53.3403 17.8872 53.0464 20.827 51.6537ZM25.8387 28.2623C25.8422 28.2868 25.8422 28.3148 25.8387 28.3428C25.8044 28.8642 25.9005 29.4835 26.12 30.1763C26.2264 30.5087 26.3602 30.8621 26.5214 31.2295C27.3721 33.175 28.9638 35.4599 31.0872 37.6294C33.2106 39.7953 35.454 41.4189 37.3613 42.2867C37.7695 42.4721 38.1605 42.6261 38.5276 42.738C39.0318 42.892 39.4949 42.9795 39.9066 42.9865C39.9375 42.9865 39.9683 42.99 39.9992 42.9935C40.5138 42.99 40.9288 42.8535 41.2067 42.5701C41.8687 41.8948 41.7144 40.4426 40.9254 38.6441C40.0747 36.6986 38.483 34.4137 36.3596 32.2443C34.2362 30.0783 31.9928 28.4548 30.0855 27.587C28.3223 26.7822 26.8987 26.6247 26.2367 27.3001C26.0103 27.5345 25.8799 27.8599 25.8387 28.2623Z"
        fill="#9D696A" />
</svg>